<?xml version="1.0" encoding="utf-8" standalone="no"?>
<!DOCTYPE svg PUBLIC "-//W3C//DTD SVG 1.1//EN"
  "http://www.w3.org/Graphics/SVG/1.1/DTD/svg11.dtd">
<svg xmlns:xlink="http://www.w3.org/1999/xlink" width="576pt" height="432pt" viewBox="0 0 576 432" xmlns="http://www.w3.org/2000/svg" version="1.1">
 <metadata>
  <rdf:RDF xmlns:dc="http://purl.org/dc/elements/1.1/" xmlns:cc="http://creativecommons.org/ns#" xmlns:rdf="http://www.w3.org/1999/02/22-rdf-syntax-ns#">
   <cc:Work>
    <dc:type rdf:resource="http://purl.org/dc/dcmitype/StillImage"/>
    <dc:date>2025-02-09T12:25:29.021711</dc:date>
    <dc:format>image/svg+xml</dc:format>
    <dc:creator>
     <cc:Agent>
      <dc:title>Matplotlib v3.8.4, https://matplotlib.org/</dc:title>
     </cc:Agent>
    </dc:creator>
   </cc:Work>
  </rdf:RDF>
 </metadata>
 <defs>
  <style type="text/css">*{stroke-linejoin: round; stroke-linecap: butt}</style>
 </defs>
 <g id="figure_1">
  <g id="patch_1">
   <path d="M 0 432 
L 576 432 
L 576 0 
L 0 0 
z
" style="fill: #181818"/>
  </g>
  <g id="axes_1">
   <g id="patch_2">
    <path d="M 72 384.48 
L 518.4 384.48 
L 518.4 51.84 
L 72 51.84 
z
" style="fill: #181818"/>
   </g>
   <g id="matplotlib.axis_1">
    <g id="xtick_1">
     <g id="line2d_1">
      <path d="M 150.264935 384.48 
L 150.264935 51.84 
" clip-path="url(#p804a77ead7)" style="fill: none; stroke: #808080; stroke-linecap: round"/>
     </g>
     <g id="text_1">
      <!-- No GIL -->
      <g style="fill: #ffffff" transform="translate(132.828216 401.870781) scale(0.11 -0.11)">
       <defs>
        <path id="Chilanka-Regular-4e" d="M 628 -103 
C 738 -103 841 -6 838 106 
L 738 3609 
L 3269 -34 
C 3309 -91 3372 -119 3431 -119 
C 3538 -119 3641 -41 3638 88 
L 3503 4375 
C 3500 4503 3400 4566 3300 4566 
C 3197 4566 3091 4497 3097 4363 
L 3209 759 
L 681 4400 
C 641 4456 581 4484 519 4484 
C 413 4484 309 4403 313 4278 
L 431 94 
C 431 -13 528 -103 628 -103 
z
" transform="scale(0.015625)"/>
        <path id="Chilanka-Regular-6f" d="M 1916 3241 
C 1891 3250 1866 3253 1841 3250 
C 1472 3234 1144 3094 853 2828 
C 563 2563 391 2225 331 1809 
C 319 1722 313 1638 313 1556 
C 313 1238 403 944 578 672 
C 841 272 1266 -31 1881 -31 
C 2213 -31 2528 69 2775 228 
C 3159 475 3469 947 3469 1519 
C 3469 1903 3369 2216 3191 2472 
C 2859 2953 2434 3209 1916 3241 
z
M 3059 1541 
C 3059 1313 3000 1081 2878 891 
C 2697 603 2319 372 1891 372 
C 1744 372 1594 397 1441 459 
C 1075 606 716 1016 716 1550 
C 716 2250 1203 2806 1844 2844 
C 1859 2838 1878 2834 1894 2834 
C 2481 2797 3059 2266 3059 1541 
z
" transform="scale(0.015625)"/>
        <path id="Chilanka-Regular-20" transform="scale(0.015625)"/>
        <path id="Chilanka-Regular-47" d="M 5072 3922 
C 4647 4309 3838 4541 2981 4541 
C 2778 4541 2569 4528 2366 4500 
C 2363 4500 2356 4497 2353 4497 
C 1569 4338 1003 4006 653 3500 
C 416 3156 313 2788 313 2425 
C 313 1803 613 1200 1022 756 
C 1400 350 1878 81 2463 -47 
C 2675 -94 2891 -116 3109 -116 
C 3350 -116 3594 -91 3844 -38 
C 4188 50 4500 197 4781 406 
C 5241 750 5472 1134 5472 1569 
C 5472 1884 5384 2094 5184 2244 
C 4894 2463 4422 2556 3881 2556 
C 3503 2556 3000 2509 2791 2478 
L 2659 2459 
C 2544 2441 2494 2356 2494 2266 
C 2494 2163 2566 2053 2688 2053 
C 2700 2053 2709 2053 2722 2056 
L 2853 2075 
C 3053 2106 3550 2147 3903 2147 
C 4131 2147 4325 2131 4481 2094 
C 4847 2006 5066 1953 5066 1581 
C 5066 1456 5038 1338 4984 1225 
C 4800 838 4244 481 3753 356 
C 3531 309 3316 288 3113 288 
C 2338 288 1719 603 1319 1034 
C 975 1403 719 1906 719 2425 
C 719 2709 797 2997 984 3269 
C 1272 3684 1753 3959 2428 4097 
C 2613 4122 2800 4134 2988 4134 
C 3728 4134 4444 3947 4797 3622 
C 4934 3497 5134 3613 5134 3778 
C 5134 3828 5116 3881 5072 3922 
z
" transform="scale(0.015625)"/>
        <path id="Chilanka-Regular-49" d="M 522 4550 
C 413 4550 313 4453 313 4344 
L 353 113 
C 353 -16 453 -81 553 -81 
C 656 -81 763 -13 759 119 
L 719 4347 
C 719 4453 622 4550 522 4550 
z
" transform="scale(0.015625)"/>
        <path id="Chilanka-Regular-4c" d="M 522 4531 
C 416 4531 313 4434 313 4325 
C 313 2469 419 1091 491 231 
C 500 116 550 41 634 9 
C 753 -34 847 -50 956 -50 
C 1069 -50 1194 -34 1366 -13 
C 1713 31 2144 88 2528 88 
C 2853 88 3141 50 3388 -22 
C 3528 -63 3641 56 3641 166 
C 3641 253 3588 341 3500 369 
C 3219 453 2900 494 2541 494 
C 2359 494 2172 481 1972 463 
C 1622 428 1244 363 922 363 
C 909 363 897 363 888 363 
C 819 1225 766 2553 719 4334 
C 719 4441 622 4531 522 4531 
z
" transform="scale(0.015625)"/>
       </defs>
       <use xlink:href="#Chilanka-Regular-4e"/>
       <use xlink:href="#Chilanka-Regular-6f" x="61.71875"/>
       <use xlink:href="#Chilanka-Regular-20" x="120.751953"/>
       <use xlink:href="#Chilanka-Regular-47" x="148.095703"/>
       <use xlink:href="#Chilanka-Regular-49" x="238.476562"/>
       <use xlink:href="#Chilanka-Regular-4c" x="255.175781"/>
      </g>
     </g>
    </g>
    <g id="xtick_2">
     <g id="line2d_2">
      <path d="M 440.135065 384.48 
L 440.135065 51.84 
" clip-path="url(#p804a77ead7)" style="fill: none; stroke: #808080; stroke-linecap: round"/>
     </g>
     <g id="text_2">
      <!-- GIL Enabled -->
      <g style="fill: #ffffff" transform="translate(408.937174 401.870781) scale(0.11 -0.11)">
       <defs>
        <path id="Chilanka-Regular-45" d="M 1538 4072 
C 2469 4072 3113 3997 3459 3844 
C 3491 3828 3522 3822 3550 3822 
C 3666 3822 3738 3909 3741 4016 
C 3744 4106 3706 4175 3625 4213 
C 3281 4366 2716 4450 1919 4475 
C 1509 4488 1125 4484 769 4463 
L 544 4447 
C 444 4441 353 4350 353 4247 
C 353 3619 375 3041 375 2519 
C 375 1828 313 325 313 209 
C 313 94 413 -3 516 -3 
C 1991 -3 2934 13 3344 50 
C 3466 59 3522 153 3522 250 
C 3522 353 3453 469 3328 456 
C 2956 425 2094 406 728 403 
L 744 703 
C 759 1031 772 1472 778 2028 
L 3044 2013 
C 3175 2009 3241 2113 3241 2216 
C 3241 2316 3175 2419 3047 2419 
L 781 2434 
C 781 2913 775 3453 763 4053 
C 959 4066 1275 4072 1538 4072 
z
" transform="scale(0.015625)"/>
        <path id="Chilanka-Regular-6e" d="M 522 3219 
C 419 3219 313 3141 313 3019 
C 313 2966 341 2913 388 2853 
C 441 2788 500 2638 566 2397 
C 631 2156 669 1797 678 1319 
C 638 1059 616 778 616 472 
C 616 381 619 291 622 197 
C 628 72 728 9 828 9 
C 922 9 1013 66 1025 181 
L 1038 303 
C 1069 606 1084 909 1084 1209 
C 1084 1238 1084 1263 1084 1291 
C 1200 1956 1538 2681 2156 2772 
C 2206 2778 2256 2781 2303 2781 
C 2834 2781 3194 2353 3294 1875 
C 3316 1763 3328 1650 3328 1534 
C 3328 1144 3200 728 2941 275 
C 2850 122 2991 -25 3122 -25 
C 3188 -25 3256 6 3294 72 
C 3588 584 3734 1072 3734 1531 
C 3734 1678 3719 1819 3691 1959 
C 3556 2609 3059 3191 2306 3191 
C 2238 3191 2169 3184 2097 3175 
C 1644 3109 1281 2819 1000 2309 
C 931 2688 822 2966 672 3147 
C 631 3197 575 3219 522 3219 
z
" transform="scale(0.015625)"/>
        <path id="Chilanka-Regular-61" d="M 3078 2172 
C 3038 2603 2869 2900 2563 3063 
C 2391 3153 2206 3200 2009 3200 
C 1853 3200 1691 3172 1522 3116 
C 1081 2975 750 2691 534 2266 
C 388 1975 313 1672 313 1353 
C 313 859 459 475 713 238 
C 853 106 1053 6 1291 6 
C 1372 6 1456 19 1547 44 
C 1694 59 1834 122 1972 231 
C 2197 413 2409 663 2609 984 
C 2613 619 2647 313 2713 72 
C 2741 -31 2819 -75 2900 -75 
C 3003 -75 3113 0 3113 116 
C 3113 134 3109 153 3103 175 
C 3044 400 3013 691 3013 1053 
C 3013 1313 3028 1606 3059 1934 
C 3078 1997 3088 2050 3088 2100 
C 3088 2125 3084 2150 3078 2172 
z
M 2672 2144 
C 2669 2100 2663 2056 2659 2016 
C 2466 1438 2053 825 1741 578 
C 1634 494 1566 453 1531 450 
C 1441 441 1375 416 1294 416 
C 1175 416 1069 459 975 547 
C 825 688 719 988 719 1347 
C 719 1603 781 1856 913 2113 
C 1069 2419 1313 2622 1647 2728 
C 1784 2772 1909 2794 2022 2794 
C 2406 2794 2634 2544 2672 2144 
z
" transform="scale(0.015625)"/>
        <path id="Chilanka-Regular-62" d="M 309 291 
C 309 138 372 3 531 3 
C 641 3 719 103 731 216 
C 744 322 753 469 763 650 
C 1047 178 1425 -56 1884 -56 
C 2456 -56 2881 169 3156 575 
C 3347 856 3434 1191 3434 1525 
C 3434 1975 3278 2425 3019 2750 
C 2794 3031 2503 3172 2147 3172 
C 2116 3172 2088 3172 2056 3169 
C 1656 3144 1244 2919 822 2494 
C 828 2753 831 3100 838 3534 
L 847 4297 
C 847 4406 756 4503 647 4503 
C 534 4503 441 4416 441 4303 
L 431 3538 
C 419 2625 409 1984 397 1613 
C 381 1569 375 1481 375 1350 
C 375 1341 375 1334 375 1325 
C 375 1006 309 584 309 291 
z
M 1881 350 
C 1441 350 1103 697 869 1391 
C 841 1478 819 1541 803 1581 
C 806 1672 806 1769 809 1866 
C 1272 2438 1700 2738 2094 2766 
C 2109 2766 2122 2766 2138 2766 
C 2684 2766 3025 2150 3025 1544 
C 3025 834 2588 350 1881 350 
z
" transform="scale(0.015625)"/>
        <path id="Chilanka-Regular-6c" d="M 631 4591 
C 525 4591 425 4506 422 4397 
C 350 2691 313 1488 313 788 
C 313 459 322 241 338 134 
C 356 19 444 -34 531 -34 
C 634 -34 741 38 741 159 
C 741 169 741 181 738 194 
C 722 288 716 481 716 775 
C 716 1450 753 2650 825 4378 
C 831 4491 734 4591 631 4591 
z
" transform="scale(0.015625)"/>
        <path id="Chilanka-Regular-65" d="M 756 1059 
C 772 1056 791 1053 806 1053 
C 1675 1053 2338 1209 2791 1516 
C 3116 1738 3300 1988 3300 2328 
C 3300 2428 3281 2522 3241 2613 
C 3094 2938 2725 3122 2269 3122 
C 1672 3122 1191 2941 822 2572 
C 538 2288 372 1944 325 1550 
C 316 1472 313 1400 313 1328 
C 313 1006 403 756 566 528 
C 853 122 1272 -41 1744 -41 
C 2200 -41 2703 113 3181 347 
C 3244 378 3294 447 3294 538 
C 3294 650 3197 734 3091 734 
C 3059 734 3031 728 3000 713 
C 2534 481 2122 366 1766 366 
C 1238 366 875 625 756 1059 
z
M 722 1441 
C 781 2225 1441 2716 2272 2716 
C 2478 2716 2638 2672 2756 2581 
C 2841 2516 2897 2459 2897 2341 
C 2897 2144 2781 2000 2566 1853 
C 2178 1591 1594 1459 806 1459 
C 778 1459 750 1453 722 1441 
z
" transform="scale(0.015625)"/>
        <path id="Chilanka-Regular-64" d="M 3372 1331 
C 3372 1375 3372 1419 3372 1459 
C 3372 1556 3366 1619 3353 1656 
C 3350 1797 3350 1978 3350 2200 
C 3350 2556 3353 3019 3356 3581 
L 3363 4347 
C 3366 4478 3263 4547 3159 4547 
C 3059 4547 2956 4481 2956 4350 
L 2950 3588 
C 2947 3153 2947 2806 2947 2547 
C 2531 2981 2122 3213 1725 3244 
C 1688 3247 1647 3247 1609 3247 
C 1266 3247 978 3119 756 2847 
C 484 2522 316 2056 316 1588 
C 316 663 953 16 1863 16 
C 2313 16 2681 247 2972 703 
C 2978 522 2988 375 2997 269 
C 3006 156 3084 53 3194 53 
C 3359 53 3416 188 3416 353 
C 3416 628 3372 1022 3372 1331 
z
M 1866 422 
C 1163 422 725 903 725 1606 
C 725 2219 1072 2844 1625 2844 
C 1644 2844 1663 2841 1681 2841 
C 2075 2806 2494 2500 2947 1919 
L 2947 1634 
C 2931 1594 2909 1531 2878 1444 
C 2631 763 2297 422 1866 422 
z
" transform="scale(0.015625)"/>
       </defs>
       <use xlink:href="#Chilanka-Regular-47"/>
       <use xlink:href="#Chilanka-Regular-49" x="90.380859"/>
       <use xlink:href="#Chilanka-Regular-4c" x="107.080078"/>
       <use xlink:href="#Chilanka-Regular-20" x="168.945312"/>
       <use xlink:href="#Chilanka-Regular-45" x="196.289062"/>
       <use xlink:href="#Chilanka-Regular-6e" x="259.619141"/>
       <use xlink:href="#Chilanka-Regular-61" x="322.851562"/>
       <use xlink:href="#Chilanka-Regular-62" x="376.318359"/>
       <use xlink:href="#Chilanka-Regular-6c" x="434.863281"/>
       <use xlink:href="#Chilanka-Regular-65" x="452.587891"/>
       <use xlink:href="#Chilanka-Regular-64" x="509.033203"/>
      </g>
     </g>
    </g>
    <g id="text_3">
     <!-- Run -->
     <g style="fill: #ffffff" transform="translate(284.1225 416.857656) scale(0.12 -0.12)">
      <defs>
       <path id="Chilanka-Regular-52" d="M 547 -119 
C 650 -119 750 -34 756 72 
C 766 278 772 588 772 1000 
C 772 1191 772 1403 769 1638 
C 778 1631 784 1625 791 1622 
L 3669 -84 
C 3822 -175 3969 -34 3969 94 
C 3969 159 3941 228 3875 266 
L 1622 1603 
C 1778 1613 1913 1628 2031 1647 
C 3047 1816 3556 2303 3556 3109 
C 3556 3766 3275 4200 2728 4413 
C 2450 4522 2081 4575 1622 4575 
C 1291 4575 913 4547 488 4491 
C 397 4478 309 4388 313 4284 
L 334 3322 
C 356 2363 366 1597 366 1028 
C 366 609 359 297 350 94 
C 344 -19 441 -119 547 -119 
z
M 766 1956 
C 759 2356 753 2813 741 3328 
L 722 4113 
C 1053 4153 1353 4175 1616 4175 
C 2334 4175 2797 4019 3006 3706 
C 3100 3563 3150 3363 3150 3113 
C 3150 2753 3006 2478 2725 2297 
C 2419 2097 1884 1997 1128 1997 
C 1053 1997 975 1997 897 2000 
C 847 2000 806 1988 766 1956 
z
" transform="scale(0.015625)"/>
       <path id="Chilanka-Regular-75" d="M 2547 2919 
L 2525 2559 
C 2516 2356 2513 2163 2513 1981 
C 2513 1891 2516 1800 2516 1716 
C 2400 1106 2163 691 1806 463 
C 1672 375 1547 338 1431 338 
C 1150 338 941 572 831 872 
C 753 1088 716 1334 716 1616 
C 716 1988 784 2416 919 2903 
C 959 3041 838 3156 728 3156 
C 641 3156 550 3100 525 3009 
C 384 2478 313 2013 313 1603 
C 313 834 588 188 1109 -6 
C 1222 -47 1331 -66 1438 -66 
C 1947 -66 2372 356 2581 716 
C 2650 250 2763 -22 2919 -103 
C 3088 -191 3244 -103 3244 56 
C 3244 128 3209 200 3141 238 
C 3134 244 3128 256 3116 278 
C 3000 494 2934 959 2922 1681 
C 2959 1897 2978 2125 2978 2366 
C 2978 2541 2969 2722 2950 2909 
C 2941 3006 2850 3094 2750 3094 
C 2656 3094 2572 3022 2547 2919 
z
" transform="scale(0.015625)"/>
      </defs>
      <use xlink:href="#Chilanka-Regular-52"/>
      <use xlink:href="#Chilanka-Regular-75" x="66.992188"/>
      <use xlink:href="#Chilanka-Regular-6e" x="121.386719"/>
     </g>
    </g>
   </g>
   <g id="matplotlib.axis_2">
    <g id="ytick_1">
     <g id="line2d_3">
      <path d="M 72 384.48 
L 518.4 384.48 
" clip-path="url(#p804a77ead7)" style="fill: none; stroke: #808080; stroke-linecap: round"/>
     </g>
     <g id="text_4">
      <!-- 0 -->
      <g style="fill: #ffffff" transform="translate(56.355469 388.425391) scale(0.11 -0.11)">
       <defs>
        <path id="Chilanka-Regular-30" d="M 2050 3828 
C 2125 3875 2163 3928 2163 3988 
C 2163 4178 1969 4219 1778 4219 
C 1350 4219 981 4013 669 3597 
C 441 3300 313 2800 313 2203 
C 313 1775 394 1378 556 1016 
C 850 375 1297 56 1894 56 
C 2322 56 2675 231 2959 572 
C 3131 778 3275 1253 3275 1766 
C 3275 2159 3175 2566 2975 2981 
C 2738 3475 2428 3759 2050 3828 
z
M 1731 3631 
C 1731 3506 1803 3444 1944 3434 
C 2009 3431 2084 3403 2163 3356 
C 2434 3191 2638 2856 2772 2359 
C 2834 2125 2866 1906 2866 1697 
C 2866 1463 2825 1244 2747 1041 
C 2597 656 2309 459 1881 459 
C 1466 459 1147 706 925 1194 
C 788 1497 719 1828 719 2194 
C 719 2988 1028 3816 1759 3816 
C 1781 3816 1806 3816 1828 3813 
C 1766 3772 1731 3713 1731 3631 
z
" transform="scale(0.015625)"/>
       </defs>
       <use xlink:href="#Chilanka-Regular-30"/>
      </g>
     </g>
    </g>
    <g id="ytick_2">
     <g id="line2d_4">
      <path d="M 72 339.734237 
L 518.4 339.734237 
" clip-path="url(#p804a77ead7)" style="fill: none; stroke: #808080; stroke-linecap: round"/>
     </g>
     <g id="text_5">
      <!-- 10 -->
      <g style="fill: #ffffff" transform="translate(53.797969 343.679628) scale(0.11 -0.11)">
       <defs>
        <path id="Chilanka-Regular-31" d="M 313 4081 
C 313 3975 400 3875 513 3875 
C 531 3875 550 3878 569 3884 
C 578 3888 606 3834 650 3725 
C 756 3456 769 2772 769 2366 
C 769 1991 750 1609 713 1225 
L 613 200 
C 613 191 613 184 613 178 
C 613 53 713 -13 816 -13 
C 913 -13 1006 44 1019 163 
L 1119 1184 
C 1156 1578 1175 1966 1175 2347 
C 1175 2641 1166 2931 1144 3219 
C 1113 3644 1078 3981 856 4184 
C 788 4247 669 4294 563 4294 
C 441 4294 313 4222 313 4081 
z
" transform="scale(0.015625)"/>
       </defs>
       <use xlink:href="#Chilanka-Regular-31"/>
       <use xlink:href="#Chilanka-Regular-30" x="23.242188"/>
      </g>
     </g>
    </g>
    <g id="ytick_3">
     <g id="line2d_5">
      <path d="M 72 294.988475 
L 518.4 294.988475 
" clip-path="url(#p804a77ead7)" style="fill: none; stroke: #808080; stroke-linecap: round"/>
     </g>
     <g id="text_6">
      <!-- 20 -->
      <g style="fill: #ffffff" transform="translate(49.207188 298.933865) scale(0.11 -0.11)">
       <defs>
        <path id="Chilanka-Regular-32" d="M 519 3166 
C 572 3166 622 3191 669 3247 
C 1013 3650 1334 3863 1638 3888 
C 1681 3891 1722 3894 1763 3894 
C 2006 3894 2200 3828 2341 3700 
C 2519 3538 2619 3322 2619 3094 
C 2619 2947 2578 2797 2494 2653 
C 1997 1872 1375 1119 634 394 
L 503 266 
C 456 222 434 175 434 128 
C 434 56 503 -78 616 -78 
C 675 -78 750 -56 844 -9 
C 1206 159 1544 247 1859 247 
C 1944 247 2025 241 2106 228 
C 2488 169 2781 128 2991 106 
C 3034 103 3078 100 3125 100 
C 3300 100 3491 134 3697 200 
C 3800 234 3853 294 3853 378 
C 3853 506 3772 591 3653 591 
C 3606 591 3553 578 3494 559 
C 3406 531 3291 516 3147 516 
C 2809 516 2247 625 1888 625 
C 1703 625 1531 609 1372 578 
C 2006 1269 2494 1888 2831 2434 
C 2956 2641 3022 2866 3022 3109 
C 3022 3488 2888 3753 2606 4006 
C 2388 4203 2109 4300 1766 4300 
C 1716 4300 1663 4297 1606 4294 
C 1188 4259 775 4000 359 3509 
C 319 3463 300 3416 300 3372 
C 300 3281 422 3166 519 3166 
z
" transform="scale(0.015625)"/>
       </defs>
       <use xlink:href="#Chilanka-Regular-32"/>
       <use xlink:href="#Chilanka-Regular-30" x="64.990234"/>
      </g>
     </g>
    </g>
    <g id="ytick_4">
     <g id="line2d_6">
      <path d="M 72 250.242712 
L 518.4 250.242712 
" clip-path="url(#p804a77ead7)" style="fill: none; stroke: #808080; stroke-linecap: round"/>
     </g>
     <g id="text_7">
      <!-- 30 -->
      <g style="fill: #ffffff" transform="translate(50.011562 254.188102) scale(0.11 -0.11)">
       <defs>
        <path id="Chilanka-Regular-33" d="M 2303 353 
C 1872 353 1309 553 619 953 
C 466 1044 316 909 316 775 
C 316 706 347 641 413 603 
C 1169 166 1797 -50 2303 -50 
C 2781 -50 3100 122 3272 456 
C 3347 597 3381 747 3381 903 
C 3381 1019 3363 1138 3322 1263 
C 3194 1650 2909 1969 2484 2050 
C 2794 2375 2975 2719 3034 3078 
C 3047 3159 3053 3238 3053 3313 
C 3053 3572 2975 3797 2819 3984 
C 2638 4200 2394 4309 2088 4309 
C 2047 4309 2006 4306 1966 4303 
C 1494 4263 994 3991 466 3481 
C 425 3441 406 3391 406 3338 
C 406 3234 484 3131 603 3131 
C 659 3131 706 3150 747 3188 
C 1206 3628 1625 3863 2000 3897 
C 2025 3900 2047 3900 2072 3900 
C 2428 3900 2647 3663 2647 3306 
C 2647 3256 2644 3203 2634 3150 
C 2581 2828 2400 2522 2084 2225 
C 1969 2116 1834 2009 1684 1913 
C 1622 1872 1597 1809 1597 1750 
C 1597 1644 1681 1538 1794 1538 
C 1822 1538 1853 1544 1884 1559 
C 2028 1628 2159 1659 2284 1659 
C 2400 1659 2509 1631 2609 1569 
C 2791 1459 2972 1200 2972 919 
C 2972 538 2719 353 2303 353 
z
" transform="scale(0.015625)"/>
       </defs>
       <use xlink:href="#Chilanka-Regular-33"/>
       <use xlink:href="#Chilanka-Regular-30" x="57.666016"/>
      </g>
     </g>
    </g>
    <g id="ytick_5">
     <g id="line2d_7">
      <path d="M 72 205.496949 
L 518.4 205.496949 
" clip-path="url(#p804a77ead7)" style="fill: none; stroke: #808080; stroke-linecap: round"/>
     </g>
     <g id="text_8">
      <!-- 40 -->
      <g style="fill: #ffffff" transform="translate(48.320312 209.44234) scale(0.11 -0.11)">
       <defs>
        <path id="Chilanka-Regular-34" d="M 4363 1944 
C 4363 2109 4238 2234 4006 2325 
C 3953 2344 3859 2356 3722 2356 
C 3475 2356 3091 2322 2569 2259 
L 2569 3247 
C 2569 3356 2478 3450 2369 3450 
C 2259 3450 2163 3356 2163 3247 
L 2163 2206 
C 2134 2203 1934 2178 1566 2128 
C 1356 2100 1178 2088 1034 2088 
C 922 2088 825 2094 750 2109 
C 759 2125 869 2253 1081 2503 
C 1600 3113 1625 3147 2125 3891 
C 2150 3928 2163 3966 2163 4003 
C 2163 4075 2116 4144 2019 4206 
C 1994 4222 1969 4231 1944 4231 
C 1891 4231 1838 4194 1788 4116 
C 1156 3188 1291 3366 475 2416 
C 375 2297 303 2163 303 2009 
C 303 1766 594 1716 897 1681 
C 931 1678 972 1675 1022 1675 
C 1163 1675 1363 1694 1622 1725 
C 1969 1769 2147 1794 2163 1797 
L 2163 278 
C 2163 169 2259 75 2369 75 
C 2478 75 2569 169 2569 278 
L 2569 1850 
C 3047 1909 3403 1938 3644 1938 
C 3800 1938 3906 1925 3963 1900 
C 3988 1791 4053 1738 4163 1738 
C 4272 1738 4363 1834 4363 1944 
z
" transform="scale(0.015625)"/>
       </defs>
       <use xlink:href="#Chilanka-Regular-34"/>
       <use xlink:href="#Chilanka-Regular-30" x="73.046875"/>
      </g>
     </g>
    </g>
    <g id="ytick_6">
     <g id="line2d_8">
      <path d="M 72 160.751186 
L 518.4 160.751186 
" clip-path="url(#p804a77ead7)" style="fill: none; stroke: #808080; stroke-linecap: round"/>
     </g>
     <g id="text_9">
      <!-- 50 -->
      <g style="fill: #ffffff" transform="translate(49.34125 164.696577) scale(0.11 -0.11)">
       <defs>
        <path id="Chilanka-Regular-35" d="M 1163 4356 
C 881 4356 691 4328 594 4269 
C 509 4216 447 4150 413 4075 
C 356 3953 309 3556 309 3288 
C 309 2856 363 2300 413 2047 
C 428 1969 506 1884 609 1884 
C 638 1884 669 1891 700 1906 
C 1325 2206 1841 2356 2247 2356 
C 2747 2356 3084 2119 3084 1678 
C 3084 1541 3050 1388 2978 1228 
C 2784 784 2284 400 1669 400 
C 1363 400 1034 491 684 669 
C 528 747 394 616 394 491 
C 394 416 431 341 500 306 
C 834 134 1228 0 1678 0 
C 2484 0 3097 497 3356 1078 
C 3447 1281 3491 1478 3491 1669 
C 3491 2384 3000 2759 2253 2759 
C 1838 2759 1344 2638 769 2384 
C 731 2684 713 2944 713 3169 
C 713 3409 769 3856 797 3916 
C 869 3947 984 3963 1147 3963 
C 1225 3963 1309 3959 1406 3953 
C 1834 3922 2100 3894 2484 3894 
C 2925 3894 3313 3947 3634 4059 
C 3728 4091 3769 4166 3769 4241 
C 3769 4347 3694 4456 3578 4456 
C 3553 4456 3528 4450 3500 4441 
C 3238 4353 2881 4300 2491 4300 
C 2172 4300 1547 4356 1163 4356 
z
" transform="scale(0.015625)"/>
       </defs>
       <use xlink:href="#Chilanka-Regular-35"/>
       <use xlink:href="#Chilanka-Regular-30" x="63.769531"/>
      </g>
     </g>
    </g>
    <g id="ytick_7">
     <g id="line2d_9">
      <path d="M 72 116.005424 
L 518.4 116.005424 
" clip-path="url(#p804a77ead7)" style="fill: none; stroke: #808080; stroke-linecap: round"/>
     </g>
     <g id="text_10">
      <!-- 60 -->
      <g style="fill: #ffffff" transform="translate(50.033906 119.950814) scale(0.11 -0.11)">
       <defs>
        <path id="Chilanka-Regular-36" d="M 1928 4188 
C 1781 4188 1550 4031 1238 3719 
C 794 3275 497 2675 338 1916 
C 313 1794 300 1672 300 1553 
C 300 1350 338 1153 413 963 
C 644 375 1141 81 1900 81 
C 2481 81 2894 222 3116 506 
C 3288 725 3363 950 3363 1169 
C 3363 1675 2894 2253 2303 2253 
C 2200 2253 2091 2234 1978 2200 
C 1656 2100 1369 1931 1109 1684 
C 1059 1638 1034 1588 1034 1538 
C 1034 1450 1131 1338 1231 1338 
C 1303 1338 1384 1381 1475 1469 
C 1641 1625 1969 1831 2288 1831 
C 2659 1831 2953 1491 2953 1175 
C 2953 1041 2903 897 2794 759 
C 2653 581 2344 488 1894 488 
C 1113 488 722 872 722 1644 
C 722 1938 797 2216 953 2553 
C 1225 3138 1569 3559 1984 3816 
C 2069 3866 2109 3925 2109 3991 
C 2109 4091 2028 4188 1928 4188 
z
" transform="scale(0.015625)"/>
       </defs>
       <use xlink:href="#Chilanka-Regular-36"/>
       <use xlink:href="#Chilanka-Regular-30" x="57.470703"/>
      </g>
     </g>
    </g>
    <g id="ytick_8">
     <g id="line2d_10">
      <path d="M 72 71.259661 
L 518.4 71.259661 
" clip-path="url(#p804a77ead7)" style="fill: none; stroke: #808080; stroke-linecap: round"/>
     </g>
     <g id="text_11">
      <!-- 70 -->
      <g style="fill: #ffffff" transform="translate(49.910156 75.205052) scale(0.11 -0.11)">
       <defs>
        <path id="Chilanka-Regular-37" d="M 3025 3291 
C 3025 3163 3016 3016 2991 2853 
C 2959 2638 2863 2222 2703 1603 
C 2544 984 2450 531 2422 241 
C 2409 122 2509 22 2616 22 
C 2716 22 2813 94 2825 203 
C 2853 475 2947 916 3106 1531 
C 3266 2147 3363 2584 3400 2847 
C 3422 3000 3431 3144 3431 3275 
C 3431 4050 3059 4469 2294 4469 
C 1834 4469 1216 4322 438 4028 
C 347 3997 309 3922 309 3847 
C 309 3741 384 3631 503 3631 
C 528 3631 553 3638 581 3647 
C 1209 3884 1709 4019 2084 4044 
C 2147 4047 2206 4050 2263 4050 
C 2838 4050 3025 3856 3025 3291 
z
" transform="scale(0.015625)"/>
       </defs>
       <use xlink:href="#Chilanka-Regular-37"/>
       <use xlink:href="#Chilanka-Regular-30" x="58.59375"/>
      </g>
     </g>
    </g>
    <g id="text_12">
     <!-- Requests per Second -->
     <g style="fill: #ffffff" transform="translate(41.725313 277.94625) rotate(-90) scale(0.12 -0.12)">
      <defs>
       <path id="Chilanka-Regular-71" d="M 3375 1869 
C 3375 2181 3422 2581 3422 2859 
C 3422 3019 3363 3153 3200 3153 
C 3091 3153 3013 3050 3003 2938 
C 2994 2831 2984 2688 2975 2506 
C 2688 2966 2313 3197 1863 3197 
C 953 3197 319 2544 319 1619 
C 319 1159 481 697 750 372 
C 975 100 1259 -34 1606 -34 
C 1644 -34 1681 -34 1719 -31 
C 2119 0 2525 228 2941 659 
L 2941 -1144 
C 2941 -1275 3044 -1341 3144 -1341 
C 3247 -1341 3347 -1275 3347 -1144 
L 3347 -378 
C 3347 534 3347 1175 3353 1547 
C 3366 1584 3375 1656 3375 1759 
C 3375 1797 3375 1831 3375 1869 
z
M 1866 2791 
C 2300 2791 2634 2447 2878 1763 
C 2909 1675 2931 1613 2947 1572 
C 2947 1481 2944 1384 2944 1288 
C 2491 709 2066 403 1672 372 
C 1653 372 1634 369 1619 369 
C 1069 369 722 991 722 1600 
C 722 2306 1163 2791 1866 2791 
z
" transform="scale(0.015625)"/>
       <path id="Chilanka-Regular-73" d="M 313 2288 
C 313 2213 322 2134 347 2053 
C 441 1728 719 1481 1047 1394 
C 1166 1363 1350 1347 1597 1347 
C 1706 1347 1847 1356 1972 1356 
C 2259 1356 2450 1263 2541 1081 
C 2569 1022 2584 966 2584 909 
C 2584 813 2541 719 2459 628 
C 2306 463 2084 378 1797 378 
C 1334 378 984 525 694 781 
C 656 813 609 828 559 828 
C 450 828 356 741 356 628 
C 356 572 381 513 425 475 
C 750 191 1159 22 1656 -25 
C 1703 -28 1747 -31 1791 -31 
C 2006 -31 2209 13 2406 103 
C 2716 244 2903 466 2972 769 
C 2984 819 2988 869 2988 919 
C 2988 1031 2959 1144 2903 1259 
C 2728 1609 2406 1763 1869 1763 
C 1759 1763 1641 1750 1541 1750 
C 1238 1750 1019 1809 891 1928 
C 775 2034 716 2150 716 2275 
C 716 2322 725 2369 741 2419 
C 819 2653 1072 2769 1500 2769 
C 1919 2769 2356 2541 2594 2313 
C 2634 2275 2681 2259 2738 2259 
C 2856 2263 2934 2363 2934 2466 
C 2934 2516 2916 2566 2872 2606 
C 2478 2981 1984 3175 1381 3175 
C 831 3175 313 2872 313 2288 
z
" transform="scale(0.015625)"/>
       <path id="Chilanka-Regular-74" d="M 1947 100 
C 1947 181 1897 250 1834 284 
C 1781 313 1731 397 1684 534 
C 1581 841 1531 1369 1531 2125 
C 1531 2291 1531 2469 1538 2656 
C 1700 2656 1859 2653 2022 2653 
L 2025 2653 
C 2153 2653 2219 2753 2219 2853 
C 2219 2956 2153 3056 2022 3059 
L 1550 3063 
C 1559 3256 1578 3819 1578 4159 
C 1578 4222 1575 4275 1575 4319 
C 1572 4447 1472 4509 1372 4509 
C 1272 4509 1169 4444 1169 4316 
C 1169 4269 1172 4216 1172 4150 
C 1172 3816 1153 3250 1144 3066 
L 516 3069 
C 409 3069 313 2972 313 2872 
C 313 2763 406 2663 516 2663 
C 722 2663 925 2659 1131 2659 
C 1125 2453 1122 2256 1122 2072 
C 1122 1703 1134 1378 1159 1100 
C 1216 459 1378 66 1647 -78 
C 1678 -94 1709 -103 1741 -103 
C 1850 -103 1947 -13 1947 100 
z
" transform="scale(0.015625)"/>
       <path id="Chilanka-Regular-70" d="M 309 2828 
C 309 2534 375 2113 375 1794 
C 375 1784 375 1778 375 1769 
C 375 1638 381 1550 397 1506 
C 409 1134 419 494 431 -419 
L 441 -1184 
C 441 -1297 534 -1384 647 -1384 
C 756 -1384 847 -1288 847 -1178 
L 838 -416 
C 831 19 828 366 822 625 
C 1244 200 1656 -25 2056 -50 
C 2088 -53 2116 -53 2147 -53 
C 2503 -53 2794 88 3019 369 
C 3278 694 3434 1144 3434 1594 
C 3434 1928 3347 2263 3156 2544 
C 2881 2950 2456 3175 1884 3175 
C 1425 3175 1047 2941 763 2469 
C 753 2650 744 2794 731 2900 
C 719 3013 641 3116 531 3116 
C 372 3116 309 2981 309 2828 
z
M 1881 2769 
C 2588 2769 3025 2284 3025 1575 
C 3025 969 2684 353 2138 353 
C 2122 353 2109 353 2094 353 
C 1700 381 1272 681 809 1253 
C 806 1350 806 1447 803 1538 
C 819 1578 841 1641 869 1728 
C 1103 2422 1441 2769 1881 2769 
z
" transform="scale(0.015625)"/>
       <path id="Chilanka-Regular-72" d="M 525 -25 
C 613 -25 775 66 775 159 
C 775 184 763 216 763 269 
C 763 366 775 456 788 644 
C 819 875 866 1097 925 1306 
C 1175 2188 1566 2663 2094 2728 
C 2213 2741 2266 2828 2266 2919 
C 2266 3025 2194 3131 2069 3131 
C 2059 3131 2053 3131 2044 3131 
C 1522 3066 1113 2734 809 2138 
C 800 2500 772 2766 728 2934 
C 706 3013 631 3088 534 3088 
C 409 3088 338 3000 338 2881 
C 338 2847 341 2806 353 2763 
C 378 2663 397 2384 409 1922 
C 413 1763 416 1619 416 1488 
C 416 1122 369 684 356 456 
C 350 381 313 294 313 216 
C 313 122 409 -25 525 -25 
z
" transform="scale(0.015625)"/>
       <path id="Chilanka-Regular-53" d="M 2475 1984 
C 2784 1984 3013 1947 3153 1872 
C 3359 1766 3572 1556 3572 1281 
C 3572 1241 3566 1197 3556 1153 
C 3494 884 3325 688 3047 559 
C 2819 453 2588 403 2344 403 
C 2291 403 2238 403 2184 409 
C 1591 466 1100 666 713 1003 
C 672 1038 628 1053 588 1053 
C 478 1053 378 950 378 841 
C 378 791 397 741 447 697 
C 900 300 1463 72 2144 6 
C 2213 0 2284 -3 2353 -3 
C 2647 -3 2928 56 3191 178 
C 3606 369 3863 669 3956 1078 
C 3972 1150 3981 1219 3981 1284 
C 3981 1719 3663 2069 3350 2228 
C 3144 2338 2847 2391 2466 2391 
C 2288 2391 2084 2372 1928 2372 
C 1488 2372 1213 2459 991 2656 
C 847 2784 719 2981 719 3225 
C 719 3297 731 3372 756 3450 
C 881 3828 1278 4013 1788 4013 
C 2538 4013 3156 3719 3556 3334 
C 3597 3297 3647 3278 3703 3278 
C 3822 3281 3900 3381 3900 3484 
C 3900 3538 3881 3588 3838 3628 
C 3363 4081 2656 4419 1766 4419 
C 1084 4419 547 4103 372 3578 
C 331 3456 313 3338 313 3225 
C 313 2859 503 2553 713 2363 
C 1025 2078 1378 1966 1928 1966 
C 2091 1966 2291 1984 2475 1984 
z
" transform="scale(0.015625)"/>
       <path id="Chilanka-Regular-63" d="M 719 1213 
C 719 1375 753 1550 819 1728 
C 997 2206 1428 2644 2025 2644 
C 2147 2644 2278 2625 2416 2584 
C 2438 2578 2459 2575 2478 2575 
C 2594 2575 2669 2684 2669 2788 
C 2669 2866 2628 2944 2531 2972 
C 2347 3028 2172 3056 2000 3056 
C 1219 3056 669 2475 438 1866 
C 356 1647 313 1431 313 1222 
C 313 1066 338 913 381 763 
C 522 291 941 -44 1578 -44 
C 1863 -44 2194 25 2566 159 
C 2638 184 2703 259 2703 356 
C 2703 466 2606 553 2500 553 
C 2475 553 2453 550 2428 541 
C 2103 422 1822 366 1581 366 
C 1028 366 719 700 719 1213 
z
" transform="scale(0.015625)"/>
      </defs>
      <use xlink:href="#Chilanka-Regular-52"/>
      <use xlink:href="#Chilanka-Regular-65" x="66.992188"/>
      <use xlink:href="#Chilanka-Regular-71" x="123.4375"/>
      <use xlink:href="#Chilanka-Regular-75" x="181.738281"/>
      <use xlink:href="#Chilanka-Regular-65" x="236.132812"/>
      <use xlink:href="#Chilanka-Regular-73" x="292.578125"/>
      <use xlink:href="#Chilanka-Regular-74" x="344.140625"/>
      <use xlink:href="#Chilanka-Regular-73" x="383.789062"/>
      <use xlink:href="#Chilanka-Regular-20" x="435.351562"/>
      <use xlink:href="#Chilanka-Regular-70" x="462.695312"/>
      <use xlink:href="#Chilanka-Regular-65" x="521.240234"/>
      <use xlink:href="#Chilanka-Regular-72" x="577.685547"/>
      <use xlink:href="#Chilanka-Regular-20" x="618.066406"/>
      <use xlink:href="#Chilanka-Regular-53" x="645.410156"/>
      <use xlink:href="#Chilanka-Regular-65" x="712.402344"/>
      <use xlink:href="#Chilanka-Regular-63" x="768.847656"/>
      <use xlink:href="#Chilanka-Regular-6f" x="815.917969"/>
      <use xlink:href="#Chilanka-Regular-6e" x="874.951172"/>
      <use xlink:href="#Chilanka-Regular-64" x="938.183594"/>
     </g>
    </g>
   </g>
   <g id="patch_3">
    <path d="M 92.290909 384.48 
L 208.238961 384.48 
L 208.238961 67.68 
L 92.290909 67.68 
z
" clip-path="url(#p804a77ead7)" style="fill: #66c2ff; stroke: #ffffff; stroke-linejoin: miter"/>
   </g>
   <g id="patch_4">
    <path d="M 382.161039 384.48 
L 498.109091 384.48 
L 498.109091 351.591864 
L 382.161039 351.591864 
z
" clip-path="url(#p804a77ead7)" style="fill: #f08080; stroke: #ffffff; stroke-linejoin: miter"/>
   </g>
   <g id="patch_5">
    <path d="M 72 384.48 
L 72 51.84 
" style="fill: none; stroke: #ffffff; stroke-width: 1.25; stroke-linejoin: miter; stroke-linecap: square"/>
   </g>
   <g id="patch_6">
    <path d="M 518.4 384.48 
L 518.4 51.84 
" style="fill: none; stroke: #ffffff; stroke-width: 1.25; stroke-linejoin: miter; stroke-linecap: square"/>
   </g>
   <g id="patch_7">
    <path d="M 72 384.48 
L 518.4 384.48 
" style="fill: none; stroke: #ffffff; stroke-width: 1.25; stroke-linejoin: miter; stroke-linecap: square"/>
   </g>
   <g id="patch_8">
    <path d="M 72 51.84 
L 518.4 51.84 
" style="fill: none; stroke: #ffffff; stroke-width: 1.25; stroke-linejoin: miter; stroke-linecap: square"/>
   </g>
   <g id="text_13">
    <!-- 70.80 -->
    <g style="fill: #ffffff" transform="translate(135.325873 65.085) scale(0.12 -0.12)">
     <defs>
      <path id="Chilanka-Regular-2e" d="M 1003 269 
C 1003 488 819 831 628 831 
C 491 831 363 584 334 472 
C 322 419 316 369 316 319 
C 316 103 434 -66 663 -66 
C 863 -66 1003 88 1003 269 
z
" transform="scale(0.015625)"/>
      <path id="Chilanka-Regular-38" d="M 2653 3116 
C 2788 3116 2853 3281 2853 3431 
C 2853 3641 2706 3828 2409 3988 
C 2222 4088 1941 4138 1572 4138 
C 941 4138 309 3866 309 3297 
C 309 3031 450 2750 644 2506 
C 722 2409 944 2244 1313 2009 
C 800 1556 541 1166 541 838 
C 541 563 719 328 1075 138 
C 1297 19 1613 -38 2019 -38 
C 2456 -38 2788 28 3000 159 
C 3206 288 3331 425 3378 578 
C 3397 644 3409 706 3409 769 
C 3409 853 3391 938 3350 1016 
C 3281 1153 3172 1306 3022 1475 
C 2872 1644 2684 1781 2459 1881 
C 2234 1981 2097 2047 2050 2069 
C 2122 2122 2294 2244 2569 2434 
C 2844 2625 3038 2781 3150 2900 
C 3209 2963 3241 3022 3241 3075 
C 3241 3169 3122 3281 3031 3281 
C 2978 3281 2925 3253 2869 3194 
C 2766 3084 2569 2931 2278 2728 
C 1988 2525 1778 2375 1650 2278 
C 1419 2416 1188 2575 959 2759 
C 800 2966 722 3147 722 3297 
C 722 3591 1025 3728 1534 3728 
C 1869 3728 2103 3691 2244 3616 
C 2366 3550 2431 3475 2431 3397 
C 2431 3359 2413 3319 2413 3284 
C 2413 3200 2525 3116 2653 3116 
z
M 1688 1794 
C 1894 1691 2125 1597 2316 1500 
C 2578 1372 2788 1172 2941 906 
C 2984 831 3009 766 3009 722 
C 3009 644 2922 588 2775 497 
C 2634 413 2372 366 2016 366 
C 1675 366 1409 419 1213 525 
C 1044 616 959 722 959 841 
C 959 863 963 888 969 913 
C 1038 1166 1278 1459 1688 1794 
z
" transform="scale(0.015625)"/>
     </defs>
     <use xlink:href="#Chilanka-Regular-37"/>
     <use xlink:href="#Chilanka-Regular-30" x="58.59375"/>
     <use xlink:href="#Chilanka-Regular-2e" x="114.453125"/>
     <use xlink:href="#Chilanka-Regular-38" x="135.058594"/>
     <use xlink:href="#Chilanka-Regular-30" x="193.115234"/>
    </g>
   </g>
   <g id="text_14">
    <!-- 7.35 -->
    <g style="fill: #ffffff" transform="translate(428.096627 348.996864) scale(0.12 -0.12)">
     <use xlink:href="#Chilanka-Regular-37"/>
     <use xlink:href="#Chilanka-Regular-2e" x="58.59375"/>
     <use xlink:href="#Chilanka-Regular-33" x="79.199219"/>
     <use xlink:href="#Chilanka-Regular-35" x="136.865234"/>
    </g>
   </g>
   <g id="text_15">
    <!-- Parallel Load Test Requests/sec (No GIL vs GIL) -->
    <g style="fill: #ffffff" transform="translate(162.372187 45.84) scale(0.12 -0.12)">
     <defs>
      <path id="Chilanka-Regular-50" d="M 725 1959 
C 784 1956 847 1956 903 1956 
C 1519 1956 2000 2091 2347 2363 
C 2622 2578 2763 2834 2763 3134 
C 2763 3469 2600 3744 2281 3984 
C 1872 4294 1284 4463 522 4488 
C 519 4488 519 4488 516 4488 
C 409 4488 313 4391 313 4284 
L 322 56 
C 322 -75 422 -141 525 -141 
C 625 -141 728 -75 728 56 
L 725 1959 
z
M 722 2366 
L 719 4069 
C 1291 4025 1731 3888 2038 3659 
C 2244 3506 2356 3319 2356 3134 
C 2356 2975 2275 2819 2097 2681 
C 1822 2466 1422 2363 897 2363 
C 841 2363 781 2363 722 2366 
z
" transform="scale(0.015625)"/>
      <path id="Chilanka-Regular-54" d="M 2219 -81 
C 2328 -81 2422 13 2422 122 
L 2422 4106 
C 2891 4103 3356 4106 3825 4103 
C 3956 4103 4022 4206 4022 4306 
C 4022 4409 3956 4509 3828 4509 
L 516 4522 
C 384 4522 319 4422 319 4319 
C 319 4219 384 4116 516 4116 
L 2016 4109 
L 2016 122 
C 2016 13 2109 -81 2219 -81 
z
" transform="scale(0.015625)"/>
      <path id="Chilanka-Regular-2f" d="M 519 -553 
C 600 -553 669 -497 700 -438 
L 2916 4100 
C 2931 4134 2938 4166 2938 4194 
C 2938 4306 2831 4384 2725 4384 
C 2656 4384 2584 4350 2547 4272 
L 334 -263 
C 319 -294 313 -322 313 -350 
C 313 -463 406 -553 519 -553 
z
" transform="scale(0.015625)"/>
      <path id="Chilanka-Regular-28" d="M 1944 -925 
C 1944 -878 1922 -831 1878 -784 
C 1328 -181 956 463 766 1150 
C 725 1300 703 1459 703 1631 
C 703 1869 744 2125 825 2403 
C 966 2881 1275 3394 1756 3944 
C 1819 4016 1850 4081 1850 4141 
C 1850 4247 1738 4341 1613 4328 
C 1544 4325 1369 4141 1097 3778 
C 575 3084 313 2384 313 1678 
C 313 778 734 -134 1578 -1059 
C 1625 -1113 1675 -1138 1725 -1138 
C 1822 -1138 1944 -1019 1944 -925 
z
" transform="scale(0.015625)"/>
      <path id="Chilanka-Regular-76" d="M 316 2981 
C 438 2103 566 1422 703 931 
C 838 441 1006 144 1203 41 
C 1266 6 1325 -9 1388 -9 
C 1575 -9 1756 147 1928 463 
C 2159 878 2428 1700 2731 2925 
C 2734 2944 2738 2959 2738 2975 
C 2738 3100 2631 3169 2525 3169 
C 2441 3169 2356 3122 2334 3022 
C 1947 1456 1631 584 1384 409 
C 1156 594 934 1469 716 3038 
C 703 3153 613 3206 522 3206 
C 419 3206 313 3138 313 3016 
C 313 3006 313 2994 316 2981 
z
" transform="scale(0.015625)"/>
      <path id="Chilanka-Regular-29" d="M 313 -925 
C 313 -1019 434 -1138 531 -1138 
C 581 -1138 631 -1113 678 -1059 
C 1522 -134 1944 778 1944 1678 
C 1944 2384 1681 3084 1159 3778 
C 888 4141 713 4325 644 4328 
C 519 4341 406 4250 406 4141 
C 406 4081 438 4016 500 3944 
C 981 3394 1291 2881 1431 2403 
C 1513 2125 1553 1869 1553 1631 
C 1553 1459 1531 1300 1491 1150 
C 1300 463 928 -181 378 -784 
C 334 -831 313 -878 313 -925 
z
" transform="scale(0.015625)"/>
     </defs>
     <use xlink:href="#Chilanka-Regular-50"/>
     <use xlink:href="#Chilanka-Regular-61" x="47.998047"/>
     <use xlink:href="#Chilanka-Regular-72" x="101.464844"/>
     <use xlink:href="#Chilanka-Regular-61" x="141.845703"/>
     <use xlink:href="#Chilanka-Regular-6c" x="195.3125"/>
     <use xlink:href="#Chilanka-Regular-6c" x="213.037109"/>
     <use xlink:href="#Chilanka-Regular-65" x="230.761719"/>
     <use xlink:href="#Chilanka-Regular-6c" x="287.207031"/>
     <use xlink:href="#Chilanka-Regular-20" x="304.931641"/>
     <use xlink:href="#Chilanka-Regular-4c" x="332.275391"/>
     <use xlink:href="#Chilanka-Regular-6f" x="394.140625"/>
     <use xlink:href="#Chilanka-Regular-61" x="453.173828"/>
     <use xlink:href="#Chilanka-Regular-64" x="506.640625"/>
     <use xlink:href="#Chilanka-Regular-20" x="564.84375"/>
     <use xlink:href="#Chilanka-Regular-54" x="592.1875"/>
     <use xlink:href="#Chilanka-Regular-65" x="660.009766"/>
     <use xlink:href="#Chilanka-Regular-73" x="716.455078"/>
     <use xlink:href="#Chilanka-Regular-74" x="768.017578"/>
     <use xlink:href="#Chilanka-Regular-20" x="807.666016"/>
     <use xlink:href="#Chilanka-Regular-52" x="835.009766"/>
     <use xlink:href="#Chilanka-Regular-65" x="902.001953"/>
     <use xlink:href="#Chilanka-Regular-71" x="958.447266"/>
     <use xlink:href="#Chilanka-Regular-75" x="1016.748047"/>
     <use xlink:href="#Chilanka-Regular-65" x="1071.142578"/>
     <use xlink:href="#Chilanka-Regular-73" x="1127.587891"/>
     <use xlink:href="#Chilanka-Regular-74" x="1179.150391"/>
     <use xlink:href="#Chilanka-Regular-73" x="1218.798828"/>
     <use xlink:href="#Chilanka-Regular-2f" x="1270.361328"/>
     <use xlink:href="#Chilanka-Regular-73" x="1321.09375"/>
     <use xlink:href="#Chilanka-Regular-65" x="1372.65625"/>
     <use xlink:href="#Chilanka-Regular-63" x="1429.101562"/>
     <use xlink:href="#Chilanka-Regular-20" x="1476.171875"/>
     <use xlink:href="#Chilanka-Regular-28" x="1503.515625"/>
     <use xlink:href="#Chilanka-Regular-4e" x="1538.720703"/>
     <use xlink:href="#Chilanka-Regular-6f" x="1600.439453"/>
     <use xlink:href="#Chilanka-Regular-20" x="1659.472656"/>
     <use xlink:href="#Chilanka-Regular-47" x="1686.816406"/>
     <use xlink:href="#Chilanka-Regular-49" x="1777.197266"/>
     <use xlink:href="#Chilanka-Regular-4c" x="1793.896484"/>
     <use xlink:href="#Chilanka-Regular-20" x="1855.761719"/>
     <use xlink:href="#Chilanka-Regular-76" x="1883.105469"/>
     <use xlink:href="#Chilanka-Regular-73" x="1930.712891"/>
     <use xlink:href="#Chilanka-Regular-20" x="1982.275391"/>
     <use xlink:href="#Chilanka-Regular-47" x="2009.619141"/>
     <use xlink:href="#Chilanka-Regular-49" x="2100"/>
     <use xlink:href="#Chilanka-Regular-4c" x="2116.699219"/>
     <use xlink:href="#Chilanka-Regular-29" x="2178.564453"/>
    </g>
   </g>
   <g id="legend_1">
    <g id="patch_9">
     <path d="M 413.104219 108.882187 
L 510.7 108.882187 
Q 512.9 108.882187 512.9 106.682187 
L 512.9 59.54 
Q 512.9 57.34 510.7 57.34 
L 413.104219 57.34 
Q 410.904219 57.34 410.904219 59.54 
L 410.904219 106.682187 
Q 410.904219 108.882187 413.104219 108.882187 
z
" style="fill: #181818; opacity: 0.8; stroke: #cccccc; stroke-linejoin: miter"/>
    </g>
    <g id="text_16">
     <!-- Run Names -->
     <g style="fill: #ffffff" transform="translate(431.048984 70.348125) scale(0.12 -0.12)">
      <defs>
       <path id="Chilanka-Regular-6d" d="M 1663 3063 
C 1359 3063 1106 2872 916 2488 
C 856 2709 775 2881 675 3009 
C 631 3063 578 3084 525 3084 
C 416 3084 309 2991 309 2878 
C 309 2838 322 2797 356 2756 
C 528 2541 622 2113 641 1466 
C 606 1203 591 909 591 588 
C 591 453 594 313 600 166 
C 606 44 706 -22 806 -22 
C 903 -22 997 38 1006 156 
L 1025 372 
C 1044 575 1050 813 1050 1088 
C 1050 1200 1050 1319 1047 1444 
C 1100 1841 1188 2150 1316 2372 
C 1428 2566 1550 2663 1678 2663 
C 1828 2663 1991 2534 2166 2275 
C 2325 2038 2434 1719 2494 1316 
C 2481 1163 2478 997 2478 825 
C 2478 619 2484 400 2500 166 
C 2513 47 2609 -16 2706 -16 
C 2800 -16 2894 41 2906 156 
C 2934 375 2944 566 2944 741 
C 2944 947 2928 1134 2903 1325 
C 2938 1728 3016 2097 3197 2416 
C 3309 2613 3453 2709 3606 2709 
C 3744 2709 3888 2628 4019 2469 
C 4219 2225 4341 1856 4341 1394 
C 4341 1031 4241 644 4038 234 
C 3959 78 4097 -53 4219 -53 
C 4294 -53 4366 -19 4403 53 
C 4631 519 4747 966 4747 1397 
C 4747 1953 4597 2403 4347 2706 
C 4141 2959 3878 3125 3600 3125 
C 3456 3125 3309 3078 3163 2975 
C 2947 2822 2778 2566 2659 2209 
C 2469 2638 2122 3063 1663 3063 
z
" transform="scale(0.015625)"/>
      </defs>
      <use xlink:href="#Chilanka-Regular-52"/>
      <use xlink:href="#Chilanka-Regular-75" x="66.992188"/>
      <use xlink:href="#Chilanka-Regular-6e" x="121.386719"/>
      <use xlink:href="#Chilanka-Regular-20" x="184.619141"/>
      <use xlink:href="#Chilanka-Regular-4e" x="211.962891"/>
      <use xlink:href="#Chilanka-Regular-61" x="273.681641"/>
      <use xlink:href="#Chilanka-Regular-6d" x="327.148438"/>
      <use xlink:href="#Chilanka-Regular-65" x="406.201172"/>
      <use xlink:href="#Chilanka-Regular-73" x="462.646484"/>
     </g>
    </g>
    <g id="patch_10">
     <path d="M 415.304219 86.333906 
L 437.304219 86.333906 
L 437.304219 78.633906 
L 415.304219 78.633906 
z
" style="fill: #66c2ff; stroke: #ffffff; stroke-linejoin: miter"/>
    </g>
    <g id="text_17">
     <!-- No GIL -->
     <g style="fill: #ffffff" transform="translate(446.104219 86.333906) scale(0.11 -0.11)">
      <use xlink:href="#Chilanka-Regular-4e"/>
      <use xlink:href="#Chilanka-Regular-6f" x="61.71875"/>
      <use xlink:href="#Chilanka-Regular-20" x="120.751953"/>
      <use xlink:href="#Chilanka-Regular-47" x="148.095703"/>
      <use xlink:href="#Chilanka-Regular-49" x="238.476562"/>
      <use xlink:href="#Chilanka-Regular-4c" x="255.175781"/>
     </g>
    </g>
    <g id="patch_11">
     <path d="M 415.304219 102.103437 
L 437.304219 102.103437 
L 437.304219 94.403437 
L 415.304219 94.403437 
z
" style="fill: #f08080; stroke: #ffffff; stroke-linejoin: miter"/>
    </g>
    <g id="text_18">
     <!-- GIL Enabled -->
     <g style="fill: #ffffff" transform="translate(446.104219 102.103437) scale(0.11 -0.11)">
      <use xlink:href="#Chilanka-Regular-47"/>
      <use xlink:href="#Chilanka-Regular-49" x="90.380859"/>
      <use xlink:href="#Chilanka-Regular-4c" x="107.080078"/>
      <use xlink:href="#Chilanka-Regular-20" x="168.945312"/>
      <use xlink:href="#Chilanka-Regular-45" x="196.289062"/>
      <use xlink:href="#Chilanka-Regular-6e" x="259.619141"/>
      <use xlink:href="#Chilanka-Regular-61" x="322.851562"/>
      <use xlink:href="#Chilanka-Regular-62" x="376.318359"/>
      <use xlink:href="#Chilanka-Regular-6c" x="434.863281"/>
      <use xlink:href="#Chilanka-Regular-65" x="452.587891"/>
      <use xlink:href="#Chilanka-Regular-64" x="509.033203"/>
     </g>
    </g>
   </g>
  </g>
 </g>
 <defs>
  <clipPath id="p804a77ead7">
   <rect x="72" y="51.84" width="446.4" height="332.64"/>
  </clipPath>
 </defs>
</svg>
