<?xml version="1.0" encoding="utf-8" standalone="no"?>
<!DOCTYPE svg PUBLIC "-//W3C//DTD SVG 1.1//EN"
  "http://www.w3.org/Graphics/SVG/1.1/DTD/svg11.dtd">
<svg xmlns:xlink="http://www.w3.org/1999/xlink" width="576pt" height="432pt" viewBox="0 0 576 432" xmlns="http://www.w3.org/2000/svg" version="1.1">
 <metadata>
  <rdf:RDF xmlns:dc="http://purl.org/dc/elements/1.1/" xmlns:cc="http://creativecommons.org/ns#" xmlns:rdf="http://www.w3.org/1999/02/22-rdf-syntax-ns#">
   <cc:Work>
    <dc:type rdf:resource="http://purl.org/dc/dcmitype/StillImage"/>
    <dc:date>2025-02-09T12:50:05.384494</dc:date>
    <dc:format>image/svg+xml</dc:format>
    <dc:creator>
     <cc:Agent>
      <dc:title>Matplotlib v3.8.4, https://matplotlib.org/</dc:title>
     </cc:Agent>
    </dc:creator>
   </cc:Work>
  </rdf:RDF>
 </metadata>
 <defs>
  <style type="text/css">*{stroke-linejoin: round; stroke-linecap: butt}</style>
 </defs>
 <g id="figure_1">
  <g id="patch_1">
   <path d="M 0 432 
L 576 432 
L 576 0 
L 0 0 
z
" style="fill: #ffffff"/>
  </g>
  <g id="axes_1">
   <g id="patch_2">
    <path d="M 72 384.48 
L 518.4 384.48 
L 518.4 51.84 
L 72 51.84 
z
" style="fill: #eaeaf2"/>
   </g>
   <g id="matplotlib.axis_1">
    <g id="xtick_1">
     <g id="line2d_1">
      <path d="M 91.843306 384.48 
L 91.843306 51.84 
" clip-path="url(#pa5d47b5845)" style="fill: none; stroke: #ffffff; stroke-linecap: round"/>
     </g>
     <g id="text_1">
      <!-- 0 -->
      <g style="fill: #262626" transform="translate(88.77104 401.870781) scale(0.11 -0.11)">
       <defs>
        <path id="Chilanka-Regular-30" d="M 2050 3828 
C 2125 3875 2163 3928 2163 3988 
C 2163 4178 1969 4219 1778 4219 
C 1350 4219 981 4013 669 3597 
C 441 3300 313 2800 313 2203 
C 313 1775 394 1378 556 1016 
C 850 375 1297 56 1894 56 
C 2322 56 2675 231 2959 572 
C 3131 778 3275 1253 3275 1766 
C 3275 2159 3175 2566 2975 2981 
C 2738 3475 2428 3759 2050 3828 
z
M 1731 3631 
C 1731 3506 1803 3444 1944 3434 
C 2009 3431 2084 3403 2163 3356 
C 2434 3191 2638 2856 2772 2359 
C 2834 2125 2866 1906 2866 1697 
C 2866 1463 2825 1244 2747 1041 
C 2597 656 2309 459 1881 459 
C 1466 459 1147 706 925 1194 
C 788 1497 719 1828 719 2194 
C 719 2988 1028 3816 1759 3816 
C 1781 3816 1806 3816 1828 3813 
C 1766 3772 1731 3713 1731 3631 
z
" transform="scale(0.015625)"/>
       </defs>
       <use xlink:href="#Chilanka-Regular-30"/>
      </g>
     </g>
    </g>
    <g id="xtick_2">
     <g id="line2d_2">
      <path d="M 151.683314 384.48 
L 151.683314 51.84 
" clip-path="url(#pa5d47b5845)" style="fill: none; stroke: #ffffff; stroke-linecap: round"/>
     </g>
     <g id="text_2">
      <!-- 25 -->
      <g style="fill: #262626" transform="translate(144.602064 401.870781) scale(0.11 -0.11)">
       <defs>
        <path id="Chilanka-Regular-32" d="M 519 3166 
C 572 3166 622 3191 669 3247 
C 1013 3650 1334 3863 1638 3888 
C 1681 3891 1722 3894 1763 3894 
C 2006 3894 2200 3828 2341 3700 
C 2519 3538 2619 3322 2619 3094 
C 2619 2947 2578 2797 2494 2653 
C 1997 1872 1375 1119 634 394 
L 503 266 
C 456 222 434 175 434 128 
C 434 56 503 -78 616 -78 
C 675 -78 750 -56 844 -9 
C 1206 159 1544 247 1859 247 
C 1944 247 2025 241 2106 228 
C 2488 169 2781 128 2991 106 
C 3034 103 3078 100 3125 100 
C 3300 100 3491 134 3697 200 
C 3800 234 3853 294 3853 378 
C 3853 506 3772 591 3653 591 
C 3606 591 3553 578 3494 559 
C 3406 531 3291 516 3147 516 
C 2809 516 2247 625 1888 625 
C 1703 625 1531 609 1372 578 
C 2006 1269 2494 1888 2831 2434 
C 2956 2641 3022 2866 3022 3109 
C 3022 3488 2888 3753 2606 4006 
C 2388 4203 2109 4300 1766 4300 
C 1716 4300 1663 4297 1606 4294 
C 1188 4259 775 4000 359 3509 
C 319 3463 300 3416 300 3372 
C 300 3281 422 3166 519 3166 
z
" transform="scale(0.015625)"/>
        <path id="Chilanka-Regular-35" d="M 1163 4356 
C 881 4356 691 4328 594 4269 
C 509 4216 447 4150 413 4075 
C 356 3953 309 3556 309 3288 
C 309 2856 363 2300 413 2047 
C 428 1969 506 1884 609 1884 
C 638 1884 669 1891 700 1906 
C 1325 2206 1841 2356 2247 2356 
C 2747 2356 3084 2119 3084 1678 
C 3084 1541 3050 1388 2978 1228 
C 2784 784 2284 400 1669 400 
C 1363 400 1034 491 684 669 
C 528 747 394 616 394 491 
C 394 416 431 341 500 306 
C 834 134 1228 0 1678 0 
C 2484 0 3097 497 3356 1078 
C 3447 1281 3491 1478 3491 1669 
C 3491 2384 3000 2759 2253 2759 
C 1838 2759 1344 2638 769 2384 
C 731 2684 713 2944 713 3169 
C 713 3409 769 3856 797 3916 
C 869 3947 984 3963 1147 3963 
C 1225 3963 1309 3959 1406 3953 
C 1834 3922 2100 3894 2484 3894 
C 2925 3894 3313 3947 3634 4059 
C 3728 4091 3769 4166 3769 4241 
C 3769 4347 3694 4456 3578 4456 
C 3553 4456 3528 4450 3500 4441 
C 3238 4353 2881 4300 2491 4300 
C 2172 4300 1547 4356 1163 4356 
z
" transform="scale(0.015625)"/>
       </defs>
       <use xlink:href="#Chilanka-Regular-32"/>
       <use xlink:href="#Chilanka-Regular-35" x="64.990234"/>
      </g>
     </g>
    </g>
    <g id="xtick_3">
     <g id="line2d_3">
      <path d="M 211.523323 384.48 
L 211.523323 51.84 
" clip-path="url(#pa5d47b5845)" style="fill: none; stroke: #ffffff; stroke-linecap: round"/>
     </g>
     <g id="text_3">
      <!-- 50 -->
      <g style="fill: #262626" transform="translate(204.943948 401.870781) scale(0.11 -0.11)">
       <use xlink:href="#Chilanka-Regular-35"/>
       <use xlink:href="#Chilanka-Regular-30" x="63.769531"/>
      </g>
     </g>
    </g>
    <g id="xtick_4">
     <g id="line2d_4">
      <path d="M 271.363331 384.48 
L 271.363331 51.84 
" clip-path="url(#pa5d47b5845)" style="fill: none; stroke: #ffffff; stroke-linecap: round"/>
     </g>
     <g id="text_4">
      <!-- 75 -->
      <g style="fill: #262626" transform="translate(264.633565 401.870781) scale(0.11 -0.11)">
       <defs>
        <path id="Chilanka-Regular-37" d="M 3025 3291 
C 3025 3163 3016 3016 2991 2853 
C 2959 2638 2863 2222 2703 1603 
C 2544 984 2450 531 2422 241 
C 2409 122 2509 22 2616 22 
C 2716 22 2813 94 2825 203 
C 2853 475 2947 916 3106 1531 
C 3266 2147 3363 2584 3400 2847 
C 3422 3000 3431 3144 3431 3275 
C 3431 4050 3059 4469 2294 4469 
C 1834 4469 1216 4322 438 4028 
C 347 3997 309 3922 309 3847 
C 309 3741 384 3631 503 3631 
C 528 3631 553 3638 581 3647 
C 1209 3884 1709 4019 2084 4044 
C 2147 4047 2206 4050 2263 4050 
C 2838 4050 3025 3856 3025 3291 
z
" transform="scale(0.015625)"/>
       </defs>
       <use xlink:href="#Chilanka-Regular-37"/>
       <use xlink:href="#Chilanka-Regular-35" x="58.59375"/>
      </g>
     </g>
    </g>
    <g id="xtick_5">
     <g id="line2d_5">
      <path d="M 331.203339 384.48 
L 331.203339 51.84 
" clip-path="url(#pa5d47b5845)" style="fill: none; stroke: #ffffff; stroke-linecap: round"/>
     </g>
     <g id="text_5">
      <!-- 100 -->
      <g style="fill: #262626" transform="translate(323.780058 401.870781) scale(0.11 -0.11)">
       <defs>
        <path id="Chilanka-Regular-31" d="M 313 4081 
C 313 3975 400 3875 513 3875 
C 531 3875 550 3878 569 3884 
C 578 3888 606 3834 650 3725 
C 756 3456 769 2772 769 2366 
C 769 1991 750 1609 713 1225 
L 613 200 
C 613 191 613 184 613 178 
C 613 53 713 -13 816 -13 
C 913 -13 1006 44 1019 163 
L 1119 1184 
C 1156 1578 1175 1966 1175 2347 
C 1175 2641 1166 2931 1144 3219 
C 1113 3644 1078 3981 856 4184 
C 788 4247 669 4294 563 4294 
C 441 4294 313 4222 313 4081 
z
" transform="scale(0.015625)"/>
       </defs>
       <use xlink:href="#Chilanka-Regular-31"/>
       <use xlink:href="#Chilanka-Regular-30" x="23.242188"/>
       <use xlink:href="#Chilanka-Regular-30" x="79.101562"/>
      </g>
     </g>
    </g>
    <g id="xtick_6">
     <g id="line2d_6">
      <path d="M 391.043348 384.48 
L 391.043348 51.84 
" clip-path="url(#pa5d47b5845)" style="fill: none; stroke: #ffffff; stroke-linecap: round"/>
     </g>
     <g id="text_6">
      <!-- 125 -->
      <g style="fill: #262626" transform="translate(382.683348 401.870781) scale(0.11 -0.11)">
       <use xlink:href="#Chilanka-Regular-31"/>
       <use xlink:href="#Chilanka-Regular-32" x="23.242188"/>
       <use xlink:href="#Chilanka-Regular-35" x="88.232422"/>
      </g>
     </g>
    </g>
    <g id="xtick_7">
     <g id="line2d_7">
      <path d="M 450.883356 384.48 
L 450.883356 51.84 
" clip-path="url(#pa5d47b5845)" style="fill: none; stroke: #ffffff; stroke-linecap: round"/>
     </g>
     <g id="text_7">
      <!-- 150 -->
      <g style="fill: #262626" transform="translate(443.025231 401.870781) scale(0.11 -0.11)">
       <use xlink:href="#Chilanka-Regular-31"/>
       <use xlink:href="#Chilanka-Regular-35" x="23.242188"/>
       <use xlink:href="#Chilanka-Regular-30" x="87.011719"/>
      </g>
     </g>
    </g>
    <g id="xtick_8">
     <g id="line2d_8">
      <path d="M 510.723365 384.48 
L 510.723365 51.84 
" clip-path="url(#pa5d47b5845)" style="fill: none; stroke: #ffffff; stroke-linecap: round"/>
     </g>
     <g id="text_8">
      <!-- 175 -->
      <g style="fill: #262626" transform="translate(502.714849 401.870781) scale(0.11 -0.11)">
       <use xlink:href="#Chilanka-Regular-31"/>
       <use xlink:href="#Chilanka-Regular-37" x="23.242188"/>
       <use xlink:href="#Chilanka-Regular-35" x="81.835938"/>
      </g>
     </g>
    </g>
    <g id="text_9">
     <!-- Latency (ms) -->
     <g style="fill: #262626" transform="translate(259.378125 416.745156) scale(0.12 -0.12)">
      <defs>
       <path id="Chilanka-Regular-4c" d="M 522 4531 
C 416 4531 313 4434 313 4325 
C 313 2469 419 1091 491 231 
C 500 116 550 41 634 9 
C 753 -34 847 -50 956 -50 
C 1069 -50 1194 -34 1366 -13 
C 1713 31 2144 88 2528 88 
C 2853 88 3141 50 3388 -22 
C 3528 -63 3641 56 3641 166 
C 3641 253 3588 341 3500 369 
C 3219 453 2900 494 2541 494 
C 2359 494 2172 481 1972 463 
C 1622 428 1244 363 922 363 
C 909 363 897 363 888 363 
C 819 1225 766 2553 719 4334 
C 719 4441 622 4531 522 4531 
z
" transform="scale(0.015625)"/>
       <path id="Chilanka-Regular-61" d="M 3078 2172 
C 3038 2603 2869 2900 2563 3063 
C 2391 3153 2206 3200 2009 3200 
C 1853 3200 1691 3172 1522 3116 
C 1081 2975 750 2691 534 2266 
C 388 1975 313 1672 313 1353 
C 313 859 459 475 713 238 
C 853 106 1053 6 1291 6 
C 1372 6 1456 19 1547 44 
C 1694 59 1834 122 1972 231 
C 2197 413 2409 663 2609 984 
C 2613 619 2647 313 2713 72 
C 2741 -31 2819 -75 2900 -75 
C 3003 -75 3113 0 3113 116 
C 3113 134 3109 153 3103 175 
C 3044 400 3013 691 3013 1053 
C 3013 1313 3028 1606 3059 1934 
C 3078 1997 3088 2050 3088 2100 
C 3088 2125 3084 2150 3078 2172 
z
M 2672 2144 
C 2669 2100 2663 2056 2659 2016 
C 2466 1438 2053 825 1741 578 
C 1634 494 1566 453 1531 450 
C 1441 441 1375 416 1294 416 
C 1175 416 1069 459 975 547 
C 825 688 719 988 719 1347 
C 719 1603 781 1856 913 2113 
C 1069 2419 1313 2622 1647 2728 
C 1784 2772 1909 2794 2022 2794 
C 2406 2794 2634 2544 2672 2144 
z
" transform="scale(0.015625)"/>
       <path id="Chilanka-Regular-74" d="M 1947 100 
C 1947 181 1897 250 1834 284 
C 1781 313 1731 397 1684 534 
C 1581 841 1531 1369 1531 2125 
C 1531 2291 1531 2469 1538 2656 
C 1700 2656 1859 2653 2022 2653 
L 2025 2653 
C 2153 2653 2219 2753 2219 2853 
C 2219 2956 2153 3056 2022 3059 
L 1550 3063 
C 1559 3256 1578 3819 1578 4159 
C 1578 4222 1575 4275 1575 4319 
C 1572 4447 1472 4509 1372 4509 
C 1272 4509 1169 4444 1169 4316 
C 1169 4269 1172 4216 1172 4150 
C 1172 3816 1153 3250 1144 3066 
L 516 3069 
C 409 3069 313 2972 313 2872 
C 313 2763 406 2663 516 2663 
C 722 2663 925 2659 1131 2659 
C 1125 2453 1122 2256 1122 2072 
C 1122 1703 1134 1378 1159 1100 
C 1216 459 1378 66 1647 -78 
C 1678 -94 1709 -103 1741 -103 
C 1850 -103 1947 -13 1947 100 
z
" transform="scale(0.015625)"/>
       <path id="Chilanka-Regular-65" d="M 756 1059 
C 772 1056 791 1053 806 1053 
C 1675 1053 2338 1209 2791 1516 
C 3116 1738 3300 1988 3300 2328 
C 3300 2428 3281 2522 3241 2613 
C 3094 2938 2725 3122 2269 3122 
C 1672 3122 1191 2941 822 2572 
C 538 2288 372 1944 325 1550 
C 316 1472 313 1400 313 1328 
C 313 1006 403 756 566 528 
C 853 122 1272 -41 1744 -41 
C 2200 -41 2703 113 3181 347 
C 3244 378 3294 447 3294 538 
C 3294 650 3197 734 3091 734 
C 3059 734 3031 728 3000 713 
C 2534 481 2122 366 1766 366 
C 1238 366 875 625 756 1059 
z
M 722 1441 
C 781 2225 1441 2716 2272 2716 
C 2478 2716 2638 2672 2756 2581 
C 2841 2516 2897 2459 2897 2341 
C 2897 2144 2781 2000 2566 1853 
C 2178 1591 1594 1459 806 1459 
C 778 1459 750 1453 722 1441 
z
" transform="scale(0.015625)"/>
       <path id="Chilanka-Regular-6e" d="M 522 3219 
C 419 3219 313 3141 313 3019 
C 313 2966 341 2913 388 2853 
C 441 2788 500 2638 566 2397 
C 631 2156 669 1797 678 1319 
C 638 1059 616 778 616 472 
C 616 381 619 291 622 197 
C 628 72 728 9 828 9 
C 922 9 1013 66 1025 181 
L 1038 303 
C 1069 606 1084 909 1084 1209 
C 1084 1238 1084 1263 1084 1291 
C 1200 1956 1538 2681 2156 2772 
C 2206 2778 2256 2781 2303 2781 
C 2834 2781 3194 2353 3294 1875 
C 3316 1763 3328 1650 3328 1534 
C 3328 1144 3200 728 2941 275 
C 2850 122 2991 -25 3122 -25 
C 3188 -25 3256 6 3294 72 
C 3588 584 3734 1072 3734 1531 
C 3734 1678 3719 1819 3691 1959 
C 3556 2609 3059 3191 2306 3191 
C 2238 3191 2169 3184 2097 3175 
C 1644 3109 1281 2819 1000 2309 
C 931 2688 822 2966 672 3147 
C 631 3197 575 3219 522 3219 
z
" transform="scale(0.015625)"/>
       <path id="Chilanka-Regular-63" d="M 719 1213 
C 719 1375 753 1550 819 1728 
C 997 2206 1428 2644 2025 2644 
C 2147 2644 2278 2625 2416 2584 
C 2438 2578 2459 2575 2478 2575 
C 2594 2575 2669 2684 2669 2788 
C 2669 2866 2628 2944 2531 2972 
C 2347 3028 2172 3056 2000 3056 
C 1219 3056 669 2475 438 1866 
C 356 1647 313 1431 313 1222 
C 313 1066 338 913 381 763 
C 522 291 941 -44 1578 -44 
C 1863 -44 2194 25 2566 159 
C 2638 184 2703 259 2703 356 
C 2703 466 2606 553 2500 553 
C 2475 553 2453 550 2428 541 
C 2103 422 1822 366 1581 366 
C 1028 366 719 700 719 1213 
z
" transform="scale(0.015625)"/>
       <path id="Chilanka-Regular-79" d="M 2622 2897 
C 2606 3009 2509 3069 2416 3069 
C 2319 3069 2225 3009 2216 2891 
C 2125 1881 1897 1144 1534 672 
C 1375 466 1234 366 1106 366 
C 969 366 847 488 747 731 
C 625 1031 563 1434 563 1944 
C 563 2234 581 2559 622 2916 
C 622 2925 622 2934 622 2941 
C 622 3069 519 3134 419 3134 
C 325 3134 231 3078 219 2963 
C 178 2594 156 2256 156 1950 
C 156 1384 228 928 372 581 
C 534 184 759 -38 1103 -38 
C 1675 -38 2091 703 2284 1234 
C 2269 178 2100 -1219 1528 -1516 
C 1453 -1556 1369 -1575 1278 -1575 
C 1147 -1575 1000 -1534 834 -1450 
C 675 -1381 547 -1509 547 -1631 
C 547 -1706 584 -1781 653 -1816 
C 872 -1922 1084 -1978 1288 -1978 
C 1597 -1978 1878 -1844 2088 -1553 
C 2491 -1000 2694 -28 2694 1366 
C 2694 1697 2681 2050 2659 2428 
L 2622 2897 
z
" transform="scale(0.015625)"/>
       <path id="Chilanka-Regular-20" transform="scale(0.015625)"/>
       <path id="Chilanka-Regular-28" d="M 1944 -925 
C 1944 -878 1922 -831 1878 -784 
C 1328 -181 956 463 766 1150 
C 725 1300 703 1459 703 1631 
C 703 1869 744 2125 825 2403 
C 966 2881 1275 3394 1756 3944 
C 1819 4016 1850 4081 1850 4141 
C 1850 4247 1738 4341 1613 4328 
C 1544 4325 1369 4141 1097 3778 
C 575 3084 313 2384 313 1678 
C 313 778 734 -134 1578 -1059 
C 1625 -1113 1675 -1138 1725 -1138 
C 1822 -1138 1944 -1019 1944 -925 
z
" transform="scale(0.015625)"/>
       <path id="Chilanka-Regular-6d" d="M 1663 3063 
C 1359 3063 1106 2872 916 2488 
C 856 2709 775 2881 675 3009 
C 631 3063 578 3084 525 3084 
C 416 3084 309 2991 309 2878 
C 309 2838 322 2797 356 2756 
C 528 2541 622 2113 641 1466 
C 606 1203 591 909 591 588 
C 591 453 594 313 600 166 
C 606 44 706 -22 806 -22 
C 903 -22 997 38 1006 156 
L 1025 372 
C 1044 575 1050 813 1050 1088 
C 1050 1200 1050 1319 1047 1444 
C 1100 1841 1188 2150 1316 2372 
C 1428 2566 1550 2663 1678 2663 
C 1828 2663 1991 2534 2166 2275 
C 2325 2038 2434 1719 2494 1316 
C 2481 1163 2478 997 2478 825 
C 2478 619 2484 400 2500 166 
C 2513 47 2609 -16 2706 -16 
C 2800 -16 2894 41 2906 156 
C 2934 375 2944 566 2944 741 
C 2944 947 2928 1134 2903 1325 
C 2938 1728 3016 2097 3197 2416 
C 3309 2613 3453 2709 3606 2709 
C 3744 2709 3888 2628 4019 2469 
C 4219 2225 4341 1856 4341 1394 
C 4341 1031 4241 644 4038 234 
C 3959 78 4097 -53 4219 -53 
C 4294 -53 4366 -19 4403 53 
C 4631 519 4747 966 4747 1397 
C 4747 1953 4597 2403 4347 2706 
C 4141 2959 3878 3125 3600 3125 
C 3456 3125 3309 3078 3163 2975 
C 2947 2822 2778 2566 2659 2209 
C 2469 2638 2122 3063 1663 3063 
z
" transform="scale(0.015625)"/>
       <path id="Chilanka-Regular-73" d="M 313 2288 
C 313 2213 322 2134 347 2053 
C 441 1728 719 1481 1047 1394 
C 1166 1363 1350 1347 1597 1347 
C 1706 1347 1847 1356 1972 1356 
C 2259 1356 2450 1263 2541 1081 
C 2569 1022 2584 966 2584 909 
C 2584 813 2541 719 2459 628 
C 2306 463 2084 378 1797 378 
C 1334 378 984 525 694 781 
C 656 813 609 828 559 828 
C 450 828 356 741 356 628 
C 356 572 381 513 425 475 
C 750 191 1159 22 1656 -25 
C 1703 -28 1747 -31 1791 -31 
C 2006 -31 2209 13 2406 103 
C 2716 244 2903 466 2972 769 
C 2984 819 2988 869 2988 919 
C 2988 1031 2959 1144 2903 1259 
C 2728 1609 2406 1763 1869 1763 
C 1759 1763 1641 1750 1541 1750 
C 1238 1750 1019 1809 891 1928 
C 775 2034 716 2150 716 2275 
C 716 2322 725 2369 741 2419 
C 819 2653 1072 2769 1500 2769 
C 1919 2769 2356 2541 2594 2313 
C 2634 2275 2681 2259 2738 2259 
C 2856 2263 2934 2363 2934 2466 
C 2934 2516 2916 2566 2872 2606 
C 2478 2981 1984 3175 1381 3175 
C 831 3175 313 2872 313 2288 
z
" transform="scale(0.015625)"/>
       <path id="Chilanka-Regular-29" d="M 313 -925 
C 313 -1019 434 -1138 531 -1138 
C 581 -1138 631 -1113 678 -1059 
C 1522 -134 1944 778 1944 1678 
C 1944 2384 1681 3084 1159 3778 
C 888 4141 713 4325 644 4328 
C 519 4341 406 4250 406 4141 
C 406 4081 438 4016 500 3944 
C 981 3394 1291 2881 1431 2403 
C 1513 2125 1553 1869 1553 1631 
C 1553 1459 1531 1300 1491 1150 
C 1300 463 928 -181 378 -784 
C 334 -831 313 -878 313 -925 
z
" transform="scale(0.015625)"/>
      </defs>
      <use xlink:href="#Chilanka-Regular-4c"/>
      <use xlink:href="#Chilanka-Regular-61" x="61.865234"/>
      <use xlink:href="#Chilanka-Regular-74" x="115.332031"/>
      <use xlink:href="#Chilanka-Regular-65" x="154.980469"/>
      <use xlink:href="#Chilanka-Regular-6e" x="211.425781"/>
      <use xlink:href="#Chilanka-Regular-63" x="274.658203"/>
      <use xlink:href="#Chilanka-Regular-79" x="321.728516"/>
      <use xlink:href="#Chilanka-Regular-20" x="368.652344"/>
      <use xlink:href="#Chilanka-Regular-28" x="395.996094"/>
      <use xlink:href="#Chilanka-Regular-6d" x="431.201172"/>
      <use xlink:href="#Chilanka-Regular-73" x="510.253906"/>
      <use xlink:href="#Chilanka-Regular-29" x="561.816406"/>
     </g>
    </g>
   </g>
   <g id="matplotlib.axis_2">
    <g id="ytick_1">
     <g id="line2d_9">
      <path d="M 72 369.36 
L 518.4 369.36 
" clip-path="url(#pa5d47b5845)" style="fill: none; stroke: #ffffff; stroke-linecap: round"/>
     </g>
     <g id="text_10">
      <!-- 0.0 -->
      <g style="fill: #262626" transform="translate(47.943906 373.305391) scale(0.11 -0.11)">
       <defs>
        <path id="Chilanka-Regular-2e" d="M 1003 269 
C 1003 488 819 831 628 831 
C 491 831 363 584 334 472 
C 322 419 316 369 316 319 
C 316 103 434 -66 663 -66 
C 863 -66 1003 88 1003 269 
z
" transform="scale(0.015625)"/>
       </defs>
       <use xlink:href="#Chilanka-Regular-30"/>
       <use xlink:href="#Chilanka-Regular-2e" x="55.859375"/>
       <use xlink:href="#Chilanka-Regular-30" x="76.464844"/>
      </g>
     </g>
    </g>
    <g id="ytick_2">
     <g id="line2d_10">
      <path d="M 72 308.88 
L 518.4 308.88 
" clip-path="url(#pa5d47b5845)" style="fill: none; stroke: #ffffff; stroke-linecap: round"/>
     </g>
     <g id="text_11">
      <!-- 0.2 -->
      <g style="fill: #262626" transform="translate(46.940156 312.825391) scale(0.11 -0.11)">
       <use xlink:href="#Chilanka-Regular-30"/>
       <use xlink:href="#Chilanka-Regular-2e" x="55.859375"/>
       <use xlink:href="#Chilanka-Regular-32" x="76.464844"/>
      </g>
     </g>
    </g>
    <g id="ytick_3">
     <g id="line2d_11">
      <path d="M 72 248.4 
L 518.4 248.4 
" clip-path="url(#pa5d47b5845)" style="fill: none; stroke: #ffffff; stroke-linecap: round"/>
     </g>
     <g id="text_12">
      <!-- 0.4 -->
      <g style="fill: #262626" transform="translate(46.053281 252.345391) scale(0.11 -0.11)">
       <defs>
        <path id="Chilanka-Regular-34" d="M 4363 1944 
C 4363 2109 4238 2234 4006 2325 
C 3953 2344 3859 2356 3722 2356 
C 3475 2356 3091 2322 2569 2259 
L 2569 3247 
C 2569 3356 2478 3450 2369 3450 
C 2259 3450 2163 3356 2163 3247 
L 2163 2206 
C 2134 2203 1934 2178 1566 2128 
C 1356 2100 1178 2088 1034 2088 
C 922 2088 825 2094 750 2109 
C 759 2125 869 2253 1081 2503 
C 1600 3113 1625 3147 2125 3891 
C 2150 3928 2163 3966 2163 4003 
C 2163 4075 2116 4144 2019 4206 
C 1994 4222 1969 4231 1944 4231 
C 1891 4231 1838 4194 1788 4116 
C 1156 3188 1291 3366 475 2416 
C 375 2297 303 2163 303 2009 
C 303 1766 594 1716 897 1681 
C 931 1678 972 1675 1022 1675 
C 1163 1675 1363 1694 1622 1725 
C 1969 1769 2147 1794 2163 1797 
L 2163 278 
C 2163 169 2259 75 2369 75 
C 2478 75 2569 169 2569 278 
L 2569 1850 
C 3047 1909 3403 1938 3644 1938 
C 3800 1938 3906 1925 3963 1900 
C 3988 1791 4053 1738 4163 1738 
C 4272 1738 4363 1834 4363 1944 
z
" transform="scale(0.015625)"/>
       </defs>
       <use xlink:href="#Chilanka-Regular-30"/>
       <use xlink:href="#Chilanka-Regular-2e" x="55.859375"/>
       <use xlink:href="#Chilanka-Regular-34" x="76.464844"/>
      </g>
     </g>
    </g>
    <g id="ytick_4">
     <g id="line2d_12">
      <path d="M 72 187.92 
L 518.4 187.92 
" clip-path="url(#pa5d47b5845)" style="fill: none; stroke: #ffffff; stroke-linecap: round"/>
     </g>
     <g id="text_13">
      <!-- 0.6 -->
      <g style="fill: #262626" transform="translate(47.766875 191.865391) scale(0.11 -0.11)">
       <defs>
        <path id="Chilanka-Regular-36" d="M 1928 4188 
C 1781 4188 1550 4031 1238 3719 
C 794 3275 497 2675 338 1916 
C 313 1794 300 1672 300 1553 
C 300 1350 338 1153 413 963 
C 644 375 1141 81 1900 81 
C 2481 81 2894 222 3116 506 
C 3288 725 3363 950 3363 1169 
C 3363 1675 2894 2253 2303 2253 
C 2200 2253 2091 2234 1978 2200 
C 1656 2100 1369 1931 1109 1684 
C 1059 1638 1034 1588 1034 1538 
C 1034 1450 1131 1338 1231 1338 
C 1303 1338 1384 1381 1475 1469 
C 1641 1625 1969 1831 2288 1831 
C 2659 1831 2953 1491 2953 1175 
C 2953 1041 2903 897 2794 759 
C 2653 581 2344 488 1894 488 
C 1113 488 722 872 722 1644 
C 722 1938 797 2216 953 2553 
C 1225 3138 1569 3559 1984 3816 
C 2069 3866 2109 3925 2109 3991 
C 2109 4091 2028 4188 1928 4188 
z
" transform="scale(0.015625)"/>
       </defs>
       <use xlink:href="#Chilanka-Regular-30"/>
       <use xlink:href="#Chilanka-Regular-2e" x="55.859375"/>
       <use xlink:href="#Chilanka-Regular-36" x="76.464844"/>
      </g>
     </g>
    </g>
    <g id="ytick_5">
     <g id="line2d_13">
      <path d="M 72 127.44 
L 518.4 127.44 
" clip-path="url(#pa5d47b5845)" style="fill: none; stroke: #ffffff; stroke-linecap: round"/>
     </g>
     <g id="text_14">
      <!-- 0.8 -->
      <g style="fill: #262626" transform="translate(47.701563 131.385391) scale(0.11 -0.11)">
       <defs>
        <path id="Chilanka-Regular-38" d="M 2653 3116 
C 2788 3116 2853 3281 2853 3431 
C 2853 3641 2706 3828 2409 3988 
C 2222 4088 1941 4138 1572 4138 
C 941 4138 309 3866 309 3297 
C 309 3031 450 2750 644 2506 
C 722 2409 944 2244 1313 2009 
C 800 1556 541 1166 541 838 
C 541 563 719 328 1075 138 
C 1297 19 1613 -38 2019 -38 
C 2456 -38 2788 28 3000 159 
C 3206 288 3331 425 3378 578 
C 3397 644 3409 706 3409 769 
C 3409 853 3391 938 3350 1016 
C 3281 1153 3172 1306 3022 1475 
C 2872 1644 2684 1781 2459 1881 
C 2234 1981 2097 2047 2050 2069 
C 2122 2122 2294 2244 2569 2434 
C 2844 2625 3038 2781 3150 2900 
C 3209 2963 3241 3022 3241 3075 
C 3241 3169 3122 3281 3031 3281 
C 2978 3281 2925 3253 2869 3194 
C 2766 3084 2569 2931 2278 2728 
C 1988 2525 1778 2375 1650 2278 
C 1419 2416 1188 2575 959 2759 
C 800 2966 722 3147 722 3297 
C 722 3591 1025 3728 1534 3728 
C 1869 3728 2103 3691 2244 3616 
C 2366 3550 2431 3475 2431 3397 
C 2431 3359 2413 3319 2413 3284 
C 2413 3200 2525 3116 2653 3116 
z
M 1688 1794 
C 1894 1691 2125 1597 2316 1500 
C 2578 1372 2788 1172 2941 906 
C 2984 831 3009 766 3009 722 
C 3009 644 2922 588 2775 497 
C 2634 413 2372 366 2016 366 
C 1675 366 1409 419 1213 525 
C 1044 616 959 722 959 841 
C 959 863 963 888 969 913 
C 1038 1166 1278 1459 1688 1794 
z
" transform="scale(0.015625)"/>
       </defs>
       <use xlink:href="#Chilanka-Regular-30"/>
       <use xlink:href="#Chilanka-Regular-2e" x="55.859375"/>
       <use xlink:href="#Chilanka-Regular-38" x="76.464844"/>
      </g>
     </g>
    </g>
    <g id="ytick_6">
     <g id="line2d_14">
      <path d="M 72 66.96 
L 518.4 66.96 
" clip-path="url(#pa5d47b5845)" style="fill: none; stroke: #ffffff; stroke-linecap: round"/>
     </g>
     <g id="text_15">
      <!-- 1.0 -->
      <g style="fill: #262626" transform="translate(51.530938 70.905391) scale(0.11 -0.11)">
       <use xlink:href="#Chilanka-Regular-31"/>
       <use xlink:href="#Chilanka-Regular-2e" x="23.242188"/>
       <use xlink:href="#Chilanka-Regular-30" x="43.847656"/>
      </g>
     </g>
    </g>
    <g id="text_16">
     <!-- Cumulative Probability -->
     <g style="fill: #262626" transform="translate(38.344531 277.313437) rotate(-90) scale(0.12 -0.12)">
      <defs>
       <path id="Chilanka-Regular-43" d="M 2544 -59 
C 2925 -59 3347 -3 3813 106 
C 3919 131 3966 213 3966 294 
C 3966 400 3891 506 3769 506 
C 3753 506 3738 503 3719 500 
C 3284 397 2897 347 2550 347 
C 1506 347 719 838 719 1859 
C 719 2703 1294 3413 1869 3750 
C 2250 3972 2669 4088 3122 4088 
C 3306 4088 3494 4069 3688 4031 
C 3703 4028 3719 4028 3731 4028 
C 3850 4028 3919 4131 3919 4234 
C 3919 4322 3872 4409 3763 4428 
C 3541 4469 3322 4491 3113 4491 
C 2591 4491 2109 4359 1666 4100 
C 981 3697 316 2869 316 1850 
C 316 613 1272 -59 2544 -59 
z
" transform="scale(0.015625)"/>
       <path id="Chilanka-Regular-75" d="M 2547 2919 
L 2525 2559 
C 2516 2356 2513 2163 2513 1981 
C 2513 1891 2516 1800 2516 1716 
C 2400 1106 2163 691 1806 463 
C 1672 375 1547 338 1431 338 
C 1150 338 941 572 831 872 
C 753 1088 716 1334 716 1616 
C 716 1988 784 2416 919 2903 
C 959 3041 838 3156 728 3156 
C 641 3156 550 3100 525 3009 
C 384 2478 313 2013 313 1603 
C 313 834 588 188 1109 -6 
C 1222 -47 1331 -66 1438 -66 
C 1947 -66 2372 356 2581 716 
C 2650 250 2763 -22 2919 -103 
C 3088 -191 3244 -103 3244 56 
C 3244 128 3209 200 3141 238 
C 3134 244 3128 256 3116 278 
C 3000 494 2934 959 2922 1681 
C 2959 1897 2978 2125 2978 2366 
C 2978 2541 2969 2722 2950 2909 
C 2941 3006 2850 3094 2750 3094 
C 2656 3094 2572 3022 2547 2919 
z
" transform="scale(0.015625)"/>
       <path id="Chilanka-Regular-6c" d="M 631 4591 
C 525 4591 425 4506 422 4397 
C 350 2691 313 1488 313 788 
C 313 459 322 241 338 134 
C 356 19 444 -34 531 -34 
C 634 -34 741 38 741 159 
C 741 169 741 181 738 194 
C 722 288 716 481 716 775 
C 716 1450 753 2650 825 4378 
C 831 4491 734 4591 631 4591 
z
" transform="scale(0.015625)"/>
       <path id="Chilanka-Regular-69" d="M 313 3797 
C 313 3619 447 3472 600 3472 
C 672 3472 753 3494 844 3541 
C 1006 3597 1109 3741 1109 3894 
C 1109 4056 953 4263 759 4263 
C 559 4263 313 4028 313 3797 
z
M 819 509 
C 850 1134 850 1634 850 2313 
C 850 2519 847 2728 844 2950 
C 844 3081 747 3144 647 3144 
C 544 3144 441 3078 441 2944 
C 444 2781 444 2609 444 2434 
C 444 1953 447 463 353 250 
C 344 222 338 194 338 169 
C 338 53 434 -38 544 -38 
C 738 -38 806 175 819 509 
z
" transform="scale(0.015625)"/>
       <path id="Chilanka-Regular-76" d="M 316 2981 
C 438 2103 566 1422 703 931 
C 838 441 1006 144 1203 41 
C 1266 6 1325 -9 1388 -9 
C 1575 -9 1756 147 1928 463 
C 2159 878 2428 1700 2731 2925 
C 2734 2944 2738 2959 2738 2975 
C 2738 3100 2631 3169 2525 3169 
C 2441 3169 2356 3122 2334 3022 
C 1947 1456 1631 584 1384 409 
C 1156 594 934 1469 716 3038 
C 703 3153 613 3206 522 3206 
C 419 3206 313 3138 313 3016 
C 313 3006 313 2994 316 2981 
z
" transform="scale(0.015625)"/>
       <path id="Chilanka-Regular-50" d="M 725 1959 
C 784 1956 847 1956 903 1956 
C 1519 1956 2000 2091 2347 2363 
C 2622 2578 2763 2834 2763 3134 
C 2763 3469 2600 3744 2281 3984 
C 1872 4294 1284 4463 522 4488 
C 519 4488 519 4488 516 4488 
C 409 4488 313 4391 313 4284 
L 322 56 
C 322 -75 422 -141 525 -141 
C 625 -141 728 -75 728 56 
L 725 1959 
z
M 722 2366 
L 719 4069 
C 1291 4025 1731 3888 2038 3659 
C 2244 3506 2356 3319 2356 3134 
C 2356 2975 2275 2819 2097 2681 
C 1822 2466 1422 2363 897 2363 
C 841 2363 781 2363 722 2366 
z
" transform="scale(0.015625)"/>
       <path id="Chilanka-Regular-72" d="M 525 -25 
C 613 -25 775 66 775 159 
C 775 184 763 216 763 269 
C 763 366 775 456 788 644 
C 819 875 866 1097 925 1306 
C 1175 2188 1566 2663 2094 2728 
C 2213 2741 2266 2828 2266 2919 
C 2266 3025 2194 3131 2069 3131 
C 2059 3131 2053 3131 2044 3131 
C 1522 3066 1113 2734 809 2138 
C 800 2500 772 2766 728 2934 
C 706 3013 631 3088 534 3088 
C 409 3088 338 3000 338 2881 
C 338 2847 341 2806 353 2763 
C 378 2663 397 2384 409 1922 
C 413 1763 416 1619 416 1488 
C 416 1122 369 684 356 456 
C 350 381 313 294 313 216 
C 313 122 409 -25 525 -25 
z
" transform="scale(0.015625)"/>
       <path id="Chilanka-Regular-6f" d="M 1916 3241 
C 1891 3250 1866 3253 1841 3250 
C 1472 3234 1144 3094 853 2828 
C 563 2563 391 2225 331 1809 
C 319 1722 313 1638 313 1556 
C 313 1238 403 944 578 672 
C 841 272 1266 -31 1881 -31 
C 2213 -31 2528 69 2775 228 
C 3159 475 3469 947 3469 1519 
C 3469 1903 3369 2216 3191 2472 
C 2859 2953 2434 3209 1916 3241 
z
M 3059 1541 
C 3059 1313 3000 1081 2878 891 
C 2697 603 2319 372 1891 372 
C 1744 372 1594 397 1441 459 
C 1075 606 716 1016 716 1550 
C 716 2250 1203 2806 1844 2844 
C 1859 2838 1878 2834 1894 2834 
C 2481 2797 3059 2266 3059 1541 
z
" transform="scale(0.015625)"/>
       <path id="Chilanka-Regular-62" d="M 309 291 
C 309 138 372 3 531 3 
C 641 3 719 103 731 216 
C 744 322 753 469 763 650 
C 1047 178 1425 -56 1884 -56 
C 2456 -56 2881 169 3156 575 
C 3347 856 3434 1191 3434 1525 
C 3434 1975 3278 2425 3019 2750 
C 2794 3031 2503 3172 2147 3172 
C 2116 3172 2088 3172 2056 3169 
C 1656 3144 1244 2919 822 2494 
C 828 2753 831 3100 838 3534 
L 847 4297 
C 847 4406 756 4503 647 4503 
C 534 4503 441 4416 441 4303 
L 431 3538 
C 419 2625 409 1984 397 1613 
C 381 1569 375 1481 375 1350 
C 375 1341 375 1334 375 1325 
C 375 1006 309 584 309 291 
z
M 1881 350 
C 1441 350 1103 697 869 1391 
C 841 1478 819 1541 803 1581 
C 806 1672 806 1769 809 1866 
C 1272 2438 1700 2738 2094 2766 
C 2109 2766 2122 2766 2138 2766 
C 2684 2766 3025 2150 3025 1544 
C 3025 834 2588 350 1881 350 
z
" transform="scale(0.015625)"/>
      </defs>
      <use xlink:href="#Chilanka-Regular-43"/>
      <use xlink:href="#Chilanka-Regular-75" x="66.894531"/>
      <use xlink:href="#Chilanka-Regular-6d" x="121.289062"/>
      <use xlink:href="#Chilanka-Regular-75" x="200.341797"/>
      <use xlink:href="#Chilanka-Regular-6c" x="254.736328"/>
      <use xlink:href="#Chilanka-Regular-61" x="272.460938"/>
      <use xlink:href="#Chilanka-Regular-74" x="325.927734"/>
      <use xlink:href="#Chilanka-Regular-69" x="365.576172"/>
      <use xlink:href="#Chilanka-Regular-76" x="387.792969"/>
      <use xlink:href="#Chilanka-Regular-65" x="435.400391"/>
      <use xlink:href="#Chilanka-Regular-20" x="491.845703"/>
      <use xlink:href="#Chilanka-Regular-50" x="519.189453"/>
      <use xlink:href="#Chilanka-Regular-72" x="567.1875"/>
      <use xlink:href="#Chilanka-Regular-6f" x="607.568359"/>
      <use xlink:href="#Chilanka-Regular-62" x="666.601562"/>
      <use xlink:href="#Chilanka-Regular-61" x="725.146484"/>
      <use xlink:href="#Chilanka-Regular-62" x="778.613281"/>
      <use xlink:href="#Chilanka-Regular-69" x="837.158203"/>
      <use xlink:href="#Chilanka-Regular-6c" x="859.375"/>
      <use xlink:href="#Chilanka-Regular-69" x="877.099609"/>
      <use xlink:href="#Chilanka-Regular-74" x="899.316406"/>
      <use xlink:href="#Chilanka-Regular-79" x="938.964844"/>
     </g>
    </g>
   </g>
   <g id="PolyCollection_1"/>
   <g id="line2d_15">
    <path d="M 92.290909 369.36 
L 93.224413 366.336 
L 93.387178 363.312 
L 93.447018 360.288 
L 93.480528 357.264 
L 93.514039 354.24 
L 93.547549 351.216 
L 93.576272 348.192 
L 93.602602 345.168 
L 93.626538 342.144 
L 93.650474 339.12 
L 93.669623 336.096 
L 93.686378 333.072 
L 93.705527 330.048 
L 93.731856 327.024 
L 93.76058 324 
L 93.791697 320.976 
L 93.832388 317.952 
L 93.877866 314.928 
L 93.949674 311.904 
L 94.117226 308.88 
L 94.69169 305.856 
L 94.835306 302.832 
L 94.883178 299.808 
L 94.93105 296.784 
L 94.978922 293.76 
L 95.026794 290.736 
L 95.05073 287.712 
L 95.098602 284.688 
L 95.122538 281.664 
L 95.146474 278.64 
L 95.194346 275.616 
L 95.242218 272.592 
L 95.266154 269.568 
L 95.337962 266.544 
L 95.385834 263.52 
L 95.481578 260.496 
L 95.744874 257.472 
L 96.151786 254.448 
L 96.24753 251.424 
L 96.319338 248.4 
L 96.36721 245.376 
L 96.391146 242.352 
L 96.439018 239.328 
L 96.462954 236.304 
L 96.510826 233.28 
L 96.534762 230.256 
L 96.558698 227.232 
L 96.60657 224.208 
L 96.654443 221.184 
L 96.678379 218.16 
L 96.750187 215.136 
L 96.798059 212.112 
L 96.893803 209.088 
L 97.037419 206.064 
L 97.372523 203.04 
L 97.564011 200.016 
L 97.683691 196.992 
L 97.779435 193.968 
L 97.827307 190.944 
L 97.899115 187.92 
L 97.946987 184.896 
L 97.994859 181.872 
L 98.042731 178.848 
L 98.090603 175.824 
L 98.162411 172.8 
L 98.210283 169.776 
L 98.282091 166.752 
L 98.377835 163.728 
L 98.473579 160.704 
L 98.641131 157.68 
L 98.928363 154.656 
L 99.119851 151.632 
L 99.239531 148.608 
L 99.311339 145.584 
L 99.383147 142.56 
L 99.454955 139.536 
L 99.550699 136.512 
L 99.646443 133.488 
L 99.766123 130.464 
L 99.933675 127.44 
L 100.244843 124.416 
L 100.579947 121.392 
L 100.795371 118.368 
L 100.986859 115.344 
L 101.178347 112.32 
L 101.441643 109.296 
L 101.920363 106.272 
L 102.207595 103.248 
L 102.399083 100.224 
L 102.566635 97.2 
L 102.805995 94.176 
L 103.380459 91.152 
L 103.883116 88.128 
L 104.529388 85.104 
L 105.5347 82.08 
L 107.018732 79.056 
L 109.891052 76.032 
L 167.792244 73.008 
L 370.554129 69.984 
L 498.109091 66.96 
" clip-path="url(#pa5d47b5845)" style="fill: none; stroke: #ff6961; stroke-width: 1.5; stroke-linecap: round"/>
    <defs>
     <path id="meace8a2a9f" d="M 0 3 
C 0.795609 3 1.55874 2.683901 2.12132 2.12132 
C 2.683901 1.55874 3 0.795609 3 0 
C 3 -0.795609 2.683901 -1.55874 2.12132 -2.12132 
C 1.55874 -2.683901 0.795609 -3 0 -3 
C -0.795609 -3 -1.55874 -2.683901 -2.12132 -2.12132 
C -2.683901 -1.55874 -3 -0.795609 -3 0 
C -3 0.795609 -2.683901 1.55874 -2.12132 2.12132 
C -1.55874 2.683901 -0.795609 3 0 3 
z
" style="stroke: #ffffff; stroke-width: 0.75"/>
    </defs>
    <g clip-path="url(#pa5d47b5845)">
     <use xlink:href="#meace8a2a9f" x="92.290909" y="369.36" style="fill: #ff6961; stroke: #ffffff; stroke-width: 0.75"/>
     <use xlink:href="#meace8a2a9f" x="93.224413" y="366.336" style="fill: #ff6961; stroke: #ffffff; stroke-width: 0.75"/>
     <use xlink:href="#meace8a2a9f" x="93.387178" y="363.312" style="fill: #ff6961; stroke: #ffffff; stroke-width: 0.75"/>
     <use xlink:href="#meace8a2a9f" x="93.447018" y="360.288" style="fill: #ff6961; stroke: #ffffff; stroke-width: 0.75"/>
     <use xlink:href="#meace8a2a9f" x="93.480528" y="357.264" style="fill: #ff6961; stroke: #ffffff; stroke-width: 0.75"/>
     <use xlink:href="#meace8a2a9f" x="93.514039" y="354.24" style="fill: #ff6961; stroke: #ffffff; stroke-width: 0.75"/>
     <use xlink:href="#meace8a2a9f" x="93.547549" y="351.216" style="fill: #ff6961; stroke: #ffffff; stroke-width: 0.75"/>
     <use xlink:href="#meace8a2a9f" x="93.576272" y="348.192" style="fill: #ff6961; stroke: #ffffff; stroke-width: 0.75"/>
     <use xlink:href="#meace8a2a9f" x="93.602602" y="345.168" style="fill: #ff6961; stroke: #ffffff; stroke-width: 0.75"/>
     <use xlink:href="#meace8a2a9f" x="93.626538" y="342.144" style="fill: #ff6961; stroke: #ffffff; stroke-width: 0.75"/>
     <use xlink:href="#meace8a2a9f" x="93.650474" y="339.12" style="fill: #ff6961; stroke: #ffffff; stroke-width: 0.75"/>
     <use xlink:href="#meace8a2a9f" x="93.669623" y="336.096" style="fill: #ff6961; stroke: #ffffff; stroke-width: 0.75"/>
     <use xlink:href="#meace8a2a9f" x="93.686378" y="333.072" style="fill: #ff6961; stroke: #ffffff; stroke-width: 0.75"/>
     <use xlink:href="#meace8a2a9f" x="93.705527" y="330.048" style="fill: #ff6961; stroke: #ffffff; stroke-width: 0.75"/>
     <use xlink:href="#meace8a2a9f" x="93.731856" y="327.024" style="fill: #ff6961; stroke: #ffffff; stroke-width: 0.75"/>
     <use xlink:href="#meace8a2a9f" x="93.76058" y="324" style="fill: #ff6961; stroke: #ffffff; stroke-width: 0.75"/>
     <use xlink:href="#meace8a2a9f" x="93.791697" y="320.976" style="fill: #ff6961; stroke: #ffffff; stroke-width: 0.75"/>
     <use xlink:href="#meace8a2a9f" x="93.832388" y="317.952" style="fill: #ff6961; stroke: #ffffff; stroke-width: 0.75"/>
     <use xlink:href="#meace8a2a9f" x="93.877866" y="314.928" style="fill: #ff6961; stroke: #ffffff; stroke-width: 0.75"/>
     <use xlink:href="#meace8a2a9f" x="93.949674" y="311.904" style="fill: #ff6961; stroke: #ffffff; stroke-width: 0.75"/>
     <use xlink:href="#meace8a2a9f" x="94.117226" y="308.88" style="fill: #ff6961; stroke: #ffffff; stroke-width: 0.75"/>
     <use xlink:href="#meace8a2a9f" x="94.69169" y="305.856" style="fill: #ff6961; stroke: #ffffff; stroke-width: 0.75"/>
     <use xlink:href="#meace8a2a9f" x="94.835306" y="302.832" style="fill: #ff6961; stroke: #ffffff; stroke-width: 0.75"/>
     <use xlink:href="#meace8a2a9f" x="94.883178" y="299.808" style="fill: #ff6961; stroke: #ffffff; stroke-width: 0.75"/>
     <use xlink:href="#meace8a2a9f" x="94.93105" y="296.784" style="fill: #ff6961; stroke: #ffffff; stroke-width: 0.75"/>
     <use xlink:href="#meace8a2a9f" x="94.978922" y="293.76" style="fill: #ff6961; stroke: #ffffff; stroke-width: 0.75"/>
     <use xlink:href="#meace8a2a9f" x="95.026794" y="290.736" style="fill: #ff6961; stroke: #ffffff; stroke-width: 0.75"/>
     <use xlink:href="#meace8a2a9f" x="95.05073" y="287.712" style="fill: #ff6961; stroke: #ffffff; stroke-width: 0.75"/>
     <use xlink:href="#meace8a2a9f" x="95.098602" y="284.688" style="fill: #ff6961; stroke: #ffffff; stroke-width: 0.75"/>
     <use xlink:href="#meace8a2a9f" x="95.122538" y="281.664" style="fill: #ff6961; stroke: #ffffff; stroke-width: 0.75"/>
     <use xlink:href="#meace8a2a9f" x="95.146474" y="278.64" style="fill: #ff6961; stroke: #ffffff; stroke-width: 0.75"/>
     <use xlink:href="#meace8a2a9f" x="95.194346" y="275.616" style="fill: #ff6961; stroke: #ffffff; stroke-width: 0.75"/>
     <use xlink:href="#meace8a2a9f" x="95.242218" y="272.592" style="fill: #ff6961; stroke: #ffffff; stroke-width: 0.75"/>
     <use xlink:href="#meace8a2a9f" x="95.266154" y="269.568" style="fill: #ff6961; stroke: #ffffff; stroke-width: 0.75"/>
     <use xlink:href="#meace8a2a9f" x="95.337962" y="266.544" style="fill: #ff6961; stroke: #ffffff; stroke-width: 0.75"/>
     <use xlink:href="#meace8a2a9f" x="95.385834" y="263.52" style="fill: #ff6961; stroke: #ffffff; stroke-width: 0.75"/>
     <use xlink:href="#meace8a2a9f" x="95.481578" y="260.496" style="fill: #ff6961; stroke: #ffffff; stroke-width: 0.75"/>
     <use xlink:href="#meace8a2a9f" x="95.744874" y="257.472" style="fill: #ff6961; stroke: #ffffff; stroke-width: 0.75"/>
     <use xlink:href="#meace8a2a9f" x="96.151786" y="254.448" style="fill: #ff6961; stroke: #ffffff; stroke-width: 0.75"/>
     <use xlink:href="#meace8a2a9f" x="96.24753" y="251.424" style="fill: #ff6961; stroke: #ffffff; stroke-width: 0.75"/>
     <use xlink:href="#meace8a2a9f" x="96.319338" y="248.4" style="fill: #ff6961; stroke: #ffffff; stroke-width: 0.75"/>
     <use xlink:href="#meace8a2a9f" x="96.36721" y="245.376" style="fill: #ff6961; stroke: #ffffff; stroke-width: 0.75"/>
     <use xlink:href="#meace8a2a9f" x="96.391146" y="242.352" style="fill: #ff6961; stroke: #ffffff; stroke-width: 0.75"/>
     <use xlink:href="#meace8a2a9f" x="96.439018" y="239.328" style="fill: #ff6961; stroke: #ffffff; stroke-width: 0.75"/>
     <use xlink:href="#meace8a2a9f" x="96.462954" y="236.304" style="fill: #ff6961; stroke: #ffffff; stroke-width: 0.75"/>
     <use xlink:href="#meace8a2a9f" x="96.510826" y="233.28" style="fill: #ff6961; stroke: #ffffff; stroke-width: 0.75"/>
     <use xlink:href="#meace8a2a9f" x="96.534762" y="230.256" style="fill: #ff6961; stroke: #ffffff; stroke-width: 0.75"/>
     <use xlink:href="#meace8a2a9f" x="96.558698" y="227.232" style="fill: #ff6961; stroke: #ffffff; stroke-width: 0.75"/>
     <use xlink:href="#meace8a2a9f" x="96.60657" y="224.208" style="fill: #ff6961; stroke: #ffffff; stroke-width: 0.75"/>
     <use xlink:href="#meace8a2a9f" x="96.654443" y="221.184" style="fill: #ff6961; stroke: #ffffff; stroke-width: 0.75"/>
     <use xlink:href="#meace8a2a9f" x="96.678379" y="218.16" style="fill: #ff6961; stroke: #ffffff; stroke-width: 0.75"/>
     <use xlink:href="#meace8a2a9f" x="96.750187" y="215.136" style="fill: #ff6961; stroke: #ffffff; stroke-width: 0.75"/>
     <use xlink:href="#meace8a2a9f" x="96.798059" y="212.112" style="fill: #ff6961; stroke: #ffffff; stroke-width: 0.75"/>
     <use xlink:href="#meace8a2a9f" x="96.893803" y="209.088" style="fill: #ff6961; stroke: #ffffff; stroke-width: 0.75"/>
     <use xlink:href="#meace8a2a9f" x="97.037419" y="206.064" style="fill: #ff6961; stroke: #ffffff; stroke-width: 0.75"/>
     <use xlink:href="#meace8a2a9f" x="97.372523" y="203.04" style="fill: #ff6961; stroke: #ffffff; stroke-width: 0.75"/>
     <use xlink:href="#meace8a2a9f" x="97.564011" y="200.016" style="fill: #ff6961; stroke: #ffffff; stroke-width: 0.75"/>
     <use xlink:href="#meace8a2a9f" x="97.683691" y="196.992" style="fill: #ff6961; stroke: #ffffff; stroke-width: 0.75"/>
     <use xlink:href="#meace8a2a9f" x="97.779435" y="193.968" style="fill: #ff6961; stroke: #ffffff; stroke-width: 0.75"/>
     <use xlink:href="#meace8a2a9f" x="97.827307" y="190.944" style="fill: #ff6961; stroke: #ffffff; stroke-width: 0.75"/>
     <use xlink:href="#meace8a2a9f" x="97.899115" y="187.92" style="fill: #ff6961; stroke: #ffffff; stroke-width: 0.75"/>
     <use xlink:href="#meace8a2a9f" x="97.946987" y="184.896" style="fill: #ff6961; stroke: #ffffff; stroke-width: 0.75"/>
     <use xlink:href="#meace8a2a9f" x="97.994859" y="181.872" style="fill: #ff6961; stroke: #ffffff; stroke-width: 0.75"/>
     <use xlink:href="#meace8a2a9f" x="98.042731" y="178.848" style="fill: #ff6961; stroke: #ffffff; stroke-width: 0.75"/>
     <use xlink:href="#meace8a2a9f" x="98.090603" y="175.824" style="fill: #ff6961; stroke: #ffffff; stroke-width: 0.75"/>
     <use xlink:href="#meace8a2a9f" x="98.162411" y="172.8" style="fill: #ff6961; stroke: #ffffff; stroke-width: 0.75"/>
     <use xlink:href="#meace8a2a9f" x="98.210283" y="169.776" style="fill: #ff6961; stroke: #ffffff; stroke-width: 0.75"/>
     <use xlink:href="#meace8a2a9f" x="98.282091" y="166.752" style="fill: #ff6961; stroke: #ffffff; stroke-width: 0.75"/>
     <use xlink:href="#meace8a2a9f" x="98.377835" y="163.728" style="fill: #ff6961; stroke: #ffffff; stroke-width: 0.75"/>
     <use xlink:href="#meace8a2a9f" x="98.473579" y="160.704" style="fill: #ff6961; stroke: #ffffff; stroke-width: 0.75"/>
     <use xlink:href="#meace8a2a9f" x="98.641131" y="157.68" style="fill: #ff6961; stroke: #ffffff; stroke-width: 0.75"/>
     <use xlink:href="#meace8a2a9f" x="98.928363" y="154.656" style="fill: #ff6961; stroke: #ffffff; stroke-width: 0.75"/>
     <use xlink:href="#meace8a2a9f" x="99.119851" y="151.632" style="fill: #ff6961; stroke: #ffffff; stroke-width: 0.75"/>
     <use xlink:href="#meace8a2a9f" x="99.239531" y="148.608" style="fill: #ff6961; stroke: #ffffff; stroke-width: 0.75"/>
     <use xlink:href="#meace8a2a9f" x="99.311339" y="145.584" style="fill: #ff6961; stroke: #ffffff; stroke-width: 0.75"/>
     <use xlink:href="#meace8a2a9f" x="99.383147" y="142.56" style="fill: #ff6961; stroke: #ffffff; stroke-width: 0.75"/>
     <use xlink:href="#meace8a2a9f" x="99.454955" y="139.536" style="fill: #ff6961; stroke: #ffffff; stroke-width: 0.75"/>
     <use xlink:href="#meace8a2a9f" x="99.550699" y="136.512" style="fill: #ff6961; stroke: #ffffff; stroke-width: 0.75"/>
     <use xlink:href="#meace8a2a9f" x="99.646443" y="133.488" style="fill: #ff6961; stroke: #ffffff; stroke-width: 0.75"/>
     <use xlink:href="#meace8a2a9f" x="99.766123" y="130.464" style="fill: #ff6961; stroke: #ffffff; stroke-width: 0.75"/>
     <use xlink:href="#meace8a2a9f" x="99.933675" y="127.44" style="fill: #ff6961; stroke: #ffffff; stroke-width: 0.75"/>
     <use xlink:href="#meace8a2a9f" x="100.244843" y="124.416" style="fill: #ff6961; stroke: #ffffff; stroke-width: 0.75"/>
     <use xlink:href="#meace8a2a9f" x="100.579947" y="121.392" style="fill: #ff6961; stroke: #ffffff; stroke-width: 0.75"/>
     <use xlink:href="#meace8a2a9f" x="100.795371" y="118.368" style="fill: #ff6961; stroke: #ffffff; stroke-width: 0.75"/>
     <use xlink:href="#meace8a2a9f" x="100.986859" y="115.344" style="fill: #ff6961; stroke: #ffffff; stroke-width: 0.75"/>
     <use xlink:href="#meace8a2a9f" x="101.178347" y="112.32" style="fill: #ff6961; stroke: #ffffff; stroke-width: 0.75"/>
     <use xlink:href="#meace8a2a9f" x="101.441643" y="109.296" style="fill: #ff6961; stroke: #ffffff; stroke-width: 0.75"/>
     <use xlink:href="#meace8a2a9f" x="101.920363" y="106.272" style="fill: #ff6961; stroke: #ffffff; stroke-width: 0.75"/>
     <use xlink:href="#meace8a2a9f" x="102.207595" y="103.248" style="fill: #ff6961; stroke: #ffffff; stroke-width: 0.75"/>
     <use xlink:href="#meace8a2a9f" x="102.399083" y="100.224" style="fill: #ff6961; stroke: #ffffff; stroke-width: 0.75"/>
     <use xlink:href="#meace8a2a9f" x="102.566635" y="97.2" style="fill: #ff6961; stroke: #ffffff; stroke-width: 0.75"/>
     <use xlink:href="#meace8a2a9f" x="102.805995" y="94.176" style="fill: #ff6961; stroke: #ffffff; stroke-width: 0.75"/>
     <use xlink:href="#meace8a2a9f" x="103.380459" y="91.152" style="fill: #ff6961; stroke: #ffffff; stroke-width: 0.75"/>
     <use xlink:href="#meace8a2a9f" x="103.883116" y="88.128" style="fill: #ff6961; stroke: #ffffff; stroke-width: 0.75"/>
     <use xlink:href="#meace8a2a9f" x="104.529388" y="85.104" style="fill: #ff6961; stroke: #ffffff; stroke-width: 0.75"/>
     <use xlink:href="#meace8a2a9f" x="105.5347" y="82.08" style="fill: #ff6961; stroke: #ffffff; stroke-width: 0.75"/>
     <use xlink:href="#meace8a2a9f" x="107.018732" y="79.056" style="fill: #ff6961; stroke: #ffffff; stroke-width: 0.75"/>
     <use xlink:href="#meace8a2a9f" x="109.891052" y="76.032" style="fill: #ff6961; stroke: #ffffff; stroke-width: 0.75"/>
     <use xlink:href="#meace8a2a9f" x="167.792244" y="73.008" style="fill: #ff6961; stroke: #ffffff; stroke-width: 0.75"/>
     <use xlink:href="#meace8a2a9f" x="370.554129" y="69.984" style="fill: #ff6961; stroke: #ffffff; stroke-width: 0.75"/>
     <use xlink:href="#meace8a2a9f" x="498.109091" y="66.96" style="fill: #ff6961; stroke: #ffffff; stroke-width: 0.75"/>
    </g>
   </g>
   <g id="patch_3">
    <path d="M 72 384.48 
L 72 51.84 
" style="fill: none; stroke: #ffffff; stroke-width: 1.25; stroke-linejoin: miter; stroke-linecap: square"/>
   </g>
   <g id="patch_4">
    <path d="M 518.4 384.48 
L 518.4 51.84 
" style="fill: none; stroke: #ffffff; stroke-width: 1.25; stroke-linejoin: miter; stroke-linecap: square"/>
   </g>
   <g id="patch_5">
    <path d="M 72 384.48 
L 518.4 384.48 
" style="fill: none; stroke: #ffffff; stroke-width: 1.25; stroke-linejoin: miter; stroke-linecap: square"/>
   </g>
   <g id="patch_6">
    <path d="M 72 51.84 
L 518.4 51.84 
" style="fill: none; stroke: #ffffff; stroke-width: 1.25; stroke-linejoin: miter; stroke-linecap: square"/>
   </g>
   <g id="text_17">
    <!-- Plaintext Load Test Latency Distribution (GIL Enabled) -->
    <g style="fill: #262626" transform="translate(144.384375 45.84) scale(0.12 -0.12)">
     <defs>
      <path id="Chilanka-Regular-78" d="M 325 2944 
C 325 2825 425 2750 531 2750 
C 550 2750 572 2753 594 2759 
C 731 2688 969 2394 1306 1888 
L 1513 1578 
L 366 313 
C 328 272 313 228 313 184 
C 313 75 416 -28 525 -28 
C 572 -28 622 -6 666 41 
L 1744 1231 
C 1931 953 2091 725 2228 547 
C 2513 178 2763 -3 2981 -3 
C 3134 -3 3247 72 3247 222 
C 3247 334 3153 419 3047 419 
C 3019 419 2988 413 2959 400 
C 2863 434 2725 572 2541 809 
C 2413 975 2241 1219 2025 1541 
L 3178 2813 
C 3216 2853 3231 2897 3231 2941 
C 3231 3053 3128 3153 3019 3153 
C 2972 3153 2922 3134 2878 3088 
L 1794 1888 
C 1769 1925 1741 1966 1716 2003 
C 1363 2534 1100 2875 925 3022 
C 828 3103 681 3172 553 3172 
C 441 3172 325 3100 325 2944 
z
" transform="scale(0.015625)"/>
      <path id="Chilanka-Regular-64" d="M 3372 1331 
C 3372 1375 3372 1419 3372 1459 
C 3372 1556 3366 1619 3353 1656 
C 3350 1797 3350 1978 3350 2200 
C 3350 2556 3353 3019 3356 3581 
L 3363 4347 
C 3366 4478 3263 4547 3159 4547 
C 3059 4547 2956 4481 2956 4350 
L 2950 3588 
C 2947 3153 2947 2806 2947 2547 
C 2531 2981 2122 3213 1725 3244 
C 1688 3247 1647 3247 1609 3247 
C 1266 3247 978 3119 756 2847 
C 484 2522 316 2056 316 1588 
C 316 663 953 16 1863 16 
C 2313 16 2681 247 2972 703 
C 2978 522 2988 375 2997 269 
C 3006 156 3084 53 3194 53 
C 3359 53 3416 188 3416 353 
C 3416 628 3372 1022 3372 1331 
z
M 1866 422 
C 1163 422 725 903 725 1606 
C 725 2219 1072 2844 1625 2844 
C 1644 2844 1663 2841 1681 2841 
C 2075 2806 2494 2500 2947 1919 
L 2947 1634 
C 2931 1594 2909 1531 2878 1444 
C 2631 763 2297 422 1866 422 
z
" transform="scale(0.015625)"/>
      <path id="Chilanka-Regular-54" d="M 2219 -81 
C 2328 -81 2422 13 2422 122 
L 2422 4106 
C 2891 4103 3356 4106 3825 4103 
C 3956 4103 4022 4206 4022 4306 
C 4022 4409 3956 4509 3828 4509 
L 516 4522 
C 384 4522 319 4422 319 4319 
C 319 4219 384 4116 516 4116 
L 2016 4109 
L 2016 122 
C 2016 13 2109 -81 2219 -81 
z
" transform="scale(0.015625)"/>
      <path id="Chilanka-Regular-44" d="M 331 166 
C 341 63 425 -31 534 -31 
C 541 -31 544 -31 550 -31 
C 1844 66 2856 650 3066 1756 
C 3094 1894 3103 2031 3103 2166 
C 3103 3056 2563 3819 2013 4181 
C 1669 4406 1306 4519 922 4519 
C 775 4519 625 4503 472 4469 
C 388 4450 313 4369 313 4269 
L 331 166 
z
M 719 4100 
C 788 4109 853 4113 919 4113 
C 1222 4113 1506 4025 1772 3853 
C 2244 3544 2694 2916 2694 2159 
C 2694 2044 2684 1922 2659 1797 
C 2500 966 1694 513 738 397 
L 719 4100 
z
" transform="scale(0.015625)"/>
      <path id="Chilanka-Regular-47" d="M 5072 3922 
C 4647 4309 3838 4541 2981 4541 
C 2778 4541 2569 4528 2366 4500 
C 2363 4500 2356 4497 2353 4497 
C 1569 4338 1003 4006 653 3500 
C 416 3156 313 2788 313 2425 
C 313 1803 613 1200 1022 756 
C 1400 350 1878 81 2463 -47 
C 2675 -94 2891 -116 3109 -116 
C 3350 -116 3594 -91 3844 -38 
C 4188 50 4500 197 4781 406 
C 5241 750 5472 1134 5472 1569 
C 5472 1884 5384 2094 5184 2244 
C 4894 2463 4422 2556 3881 2556 
C 3503 2556 3000 2509 2791 2478 
L 2659 2459 
C 2544 2441 2494 2356 2494 2266 
C 2494 2163 2566 2053 2688 2053 
C 2700 2053 2709 2053 2722 2056 
L 2853 2075 
C 3053 2106 3550 2147 3903 2147 
C 4131 2147 4325 2131 4481 2094 
C 4847 2006 5066 1953 5066 1581 
C 5066 1456 5038 1338 4984 1225 
C 4800 838 4244 481 3753 356 
C 3531 309 3316 288 3113 288 
C 2338 288 1719 603 1319 1034 
C 975 1403 719 1906 719 2425 
C 719 2709 797 2997 984 3269 
C 1272 3684 1753 3959 2428 4097 
C 2613 4122 2800 4134 2988 4134 
C 3728 4134 4444 3947 4797 3622 
C 4934 3497 5134 3613 5134 3778 
C 5134 3828 5116 3881 5072 3922 
z
" transform="scale(0.015625)"/>
      <path id="Chilanka-Regular-49" d="M 522 4550 
C 413 4550 313 4453 313 4344 
L 353 113 
C 353 -16 453 -81 553 -81 
C 656 -81 763 -13 759 119 
L 719 4347 
C 719 4453 622 4550 522 4550 
z
" transform="scale(0.015625)"/>
      <path id="Chilanka-Regular-45" d="M 1538 4072 
C 2469 4072 3113 3997 3459 3844 
C 3491 3828 3522 3822 3550 3822 
C 3666 3822 3738 3909 3741 4016 
C 3744 4106 3706 4175 3625 4213 
C 3281 4366 2716 4450 1919 4475 
C 1509 4488 1125 4484 769 4463 
L 544 4447 
C 444 4441 353 4350 353 4247 
C 353 3619 375 3041 375 2519 
C 375 1828 313 325 313 209 
C 313 94 413 -3 516 -3 
C 1991 -3 2934 13 3344 50 
C 3466 59 3522 153 3522 250 
C 3522 353 3453 469 3328 456 
C 2956 425 2094 406 728 403 
L 744 703 
C 759 1031 772 1472 778 2028 
L 3044 2013 
C 3175 2009 3241 2113 3241 2216 
C 3241 2316 3175 2419 3047 2419 
L 781 2434 
C 781 2913 775 3453 763 4053 
C 959 4066 1275 4072 1538 4072 
z
" transform="scale(0.015625)"/>
     </defs>
     <use xlink:href="#Chilanka-Regular-50"/>
     <use xlink:href="#Chilanka-Regular-6c" x="47.998047"/>
     <use xlink:href="#Chilanka-Regular-61" x="65.722656"/>
     <use xlink:href="#Chilanka-Regular-69" x="119.189453"/>
     <use xlink:href="#Chilanka-Regular-6e" x="141.40625"/>
     <use xlink:href="#Chilanka-Regular-74" x="204.638672"/>
     <use xlink:href="#Chilanka-Regular-65" x="244.287109"/>
     <use xlink:href="#Chilanka-Regular-78" x="300.732422"/>
     <use xlink:href="#Chilanka-Regular-74" x="356.347656"/>
     <use xlink:href="#Chilanka-Regular-20" x="395.996094"/>
     <use xlink:href="#Chilanka-Regular-4c" x="423.339844"/>
     <use xlink:href="#Chilanka-Regular-6f" x="485.205078"/>
     <use xlink:href="#Chilanka-Regular-61" x="544.238281"/>
     <use xlink:href="#Chilanka-Regular-64" x="597.705078"/>
     <use xlink:href="#Chilanka-Regular-20" x="655.908203"/>
     <use xlink:href="#Chilanka-Regular-54" x="683.251953"/>
     <use xlink:href="#Chilanka-Regular-65" x="751.074219"/>
     <use xlink:href="#Chilanka-Regular-73" x="807.519531"/>
     <use xlink:href="#Chilanka-Regular-74" x="859.082031"/>
     <use xlink:href="#Chilanka-Regular-20" x="898.730469"/>
     <use xlink:href="#Chilanka-Regular-4c" x="926.074219"/>
     <use xlink:href="#Chilanka-Regular-61" x="987.939453"/>
     <use xlink:href="#Chilanka-Regular-74" x="1041.40625"/>
     <use xlink:href="#Chilanka-Regular-65" x="1081.054688"/>
     <use xlink:href="#Chilanka-Regular-6e" x="1137.5"/>
     <use xlink:href="#Chilanka-Regular-63" x="1200.732422"/>
     <use xlink:href="#Chilanka-Regular-79" x="1247.802734"/>
     <use xlink:href="#Chilanka-Regular-20" x="1294.726562"/>
     <use xlink:href="#Chilanka-Regular-44" x="1322.070312"/>
     <use xlink:href="#Chilanka-Regular-69" x="1375.439453"/>
     <use xlink:href="#Chilanka-Regular-73" x="1397.65625"/>
     <use xlink:href="#Chilanka-Regular-74" x="1449.21875"/>
     <use xlink:href="#Chilanka-Regular-72" x="1488.867188"/>
     <use xlink:href="#Chilanka-Regular-69" x="1529.248047"/>
     <use xlink:href="#Chilanka-Regular-62" x="1551.464844"/>
     <use xlink:href="#Chilanka-Regular-75" x="1610.009766"/>
     <use xlink:href="#Chilanka-Regular-74" x="1664.404297"/>
     <use xlink:href="#Chilanka-Regular-69" x="1704.052734"/>
     <use xlink:href="#Chilanka-Regular-6f" x="1726.269531"/>
     <use xlink:href="#Chilanka-Regular-6e" x="1785.302734"/>
     <use xlink:href="#Chilanka-Regular-20" x="1848.535156"/>
     <use xlink:href="#Chilanka-Regular-28" x="1875.878906"/>
     <use xlink:href="#Chilanka-Regular-47" x="1911.083984"/>
     <use xlink:href="#Chilanka-Regular-49" x="2001.464844"/>
     <use xlink:href="#Chilanka-Regular-4c" x="2018.164062"/>
     <use xlink:href="#Chilanka-Regular-20" x="2080.029297"/>
     <use xlink:href="#Chilanka-Regular-45" x="2107.373047"/>
     <use xlink:href="#Chilanka-Regular-6e" x="2170.703125"/>
     <use xlink:href="#Chilanka-Regular-61" x="2233.935547"/>
     <use xlink:href="#Chilanka-Regular-62" x="2287.402344"/>
     <use xlink:href="#Chilanka-Regular-6c" x="2345.947266"/>
     <use xlink:href="#Chilanka-Regular-65" x="2363.671875"/>
     <use xlink:href="#Chilanka-Regular-64" x="2420.117188"/>
     <use xlink:href="#Chilanka-Regular-29" x="2478.320312"/>
    </g>
   </g>
   <g id="legend_1">
    <g id="patch_7">
     <path d="M 413.104219 378.98 
L 510.7 378.98 
Q 512.9 378.98 512.9 376.78 
L 512.9 362.110469 
Q 512.9 359.910469 510.7 359.910469 
L 413.104219 359.910469 
Q 410.904219 359.910469 410.904219 362.110469 
L 410.904219 376.78 
Q 410.904219 378.98 413.104219 378.98 
z
" style="fill: #eaeaf2; opacity: 0.8; stroke: #cccccc; stroke-linejoin: miter"/>
    </g>
    <g id="line2d_16">
     <path d="M 415.304219 368.35125 
L 426.304219 368.35125 
L 437.304219 368.35125 
" style="fill: none; stroke: #ff6961; stroke-width: 1.5; stroke-linecap: round"/>
     <g>
      <use xlink:href="#meace8a2a9f" x="426.304219" y="368.35125" style="fill: #ff6961; stroke: #ffffff; stroke-width: 0.75"/>
     </g>
    </g>
    <g id="text_18">
     <!-- GIL Enabled -->
     <g style="fill: #262626" transform="translate(446.104219 372.20125) scale(0.11 -0.11)">
      <use xlink:href="#Chilanka-Regular-47"/>
      <use xlink:href="#Chilanka-Regular-49" x="90.380859"/>
      <use xlink:href="#Chilanka-Regular-4c" x="107.080078"/>
      <use xlink:href="#Chilanka-Regular-20" x="168.945312"/>
      <use xlink:href="#Chilanka-Regular-45" x="196.289062"/>
      <use xlink:href="#Chilanka-Regular-6e" x="259.619141"/>
      <use xlink:href="#Chilanka-Regular-61" x="322.851562"/>
      <use xlink:href="#Chilanka-Regular-62" x="376.318359"/>
      <use xlink:href="#Chilanka-Regular-6c" x="434.863281"/>
      <use xlink:href="#Chilanka-Regular-65" x="452.587891"/>
      <use xlink:href="#Chilanka-Regular-64" x="509.033203"/>
     </g>
    </g>
   </g>
  </g>
 </g>
 <defs>
  <clipPath id="pa5d47b5845">
   <rect x="72" y="51.84" width="446.4" height="332.64"/>
  </clipPath>
 </defs>
</svg>
